<svg width="266" height="181" viewBox="0 0 266 181" fill="none" xmlns="http://www.w3.org/2000/svg">
<rect width="266" height="181" rx="12" fill="#173571"/>
<circle cx="134.48" cy="103.864" r="45" stroke="#B9D4FF" stroke-width="2"/>
<path d="M155.299 115.61C155.99 115.61 156.68 115.61 157.415 115.61C157.415 116.442 157.415 117.198 157.415 118.004C142.107 118.004 126.777 118.004 111.412 118.004C111.412 117.243 111.412 116.486 111.412 115.64C112.082 115.64 112.744 115.64 113.539 115.642C127.404 115.645 141.138 115.646 154.872 115.646C155.014 115.646 155.157 115.623 155.299 115.61Z" fill="#B9D4FF"/>
<path d="M113.555 115.434C113.555 114.655 113.555 113.877 113.555 113.029C114.246 113.029 114.905 113.029 115.696 113.04C128.124 113.053 140.419 113.055 152.715 113.055C152.857 113.055 152.999 113.03 153.141 113.017C153.829 113.017 154.517 113.017 155.3 113.017C155.3 113.804 155.3 114.554 155.226 115.37C141.286 115.435 127.42 115.434 113.555 115.434Z" fill="#B9D4FF"/>
<path d="M121.543 93.8861C121.813 93.881 122.027 93.9033 122.241 93.9033C130.532 93.9039 138.822 93.9024 147.173 93.8852C149.172 93.8691 151.109 93.8691 153.086 93.8691C153.086 94.7262 153.086 95.4794 153.086 96.2714C140.647 96.2714 128.226 96.2714 115.759 96.2714C115.759 95.5147 115.759 94.7602 115.759 93.9031C117.665 93.9031 119.577 93.9031 121.543 93.8861Z" fill="#B9D4FF"/>
<path d="M121.954 110.143C122.059 110.237 122.162 110.407 122.271 110.411C122.913 110.437 123.556 110.423 124.332 110.434C125.529 110.433 126.594 110.422 127.659 110.41C128.377 110.415 129.096 110.419 129.948 110.434C131.145 110.433 132.21 110.422 133.275 110.41C133.993 110.415 134.712 110.419 135.564 110.434C136.761 110.433 137.826 110.422 138.891 110.41C139.609 110.415 140.328 110.419 141.18 110.434C142.377 110.433 143.442 110.422 144.507 110.411C145.315 110.37 146.123 110.33 146.903 110.216C146.875 110.142 146.871 110.134 146.827 110.202C146.895 110.33 147.008 110.439 147.121 110.439C148.122 110.441 149.122 110.423 150.123 110.41C151.094 110.41 152.065 110.41 153.124 110.41C153.124 111.17 153.124 111.874 153.059 112.662C152.874 112.752 152.755 112.766 152.635 112.766C140.543 112.767 128.45 112.767 116.358 112.764C116.144 112.764 115.93 112.729 115.716 112.71C115.716 111.977 115.716 111.245 115.716 110.423C116.701 110.423 117.642 110.423 118.715 110.434C119.767 110.446 120.686 110.459 121.603 110.435C121.727 110.432 121.846 110.239 121.965 110.138C121.963 110.142 121.954 110.143 121.954 110.143Z" fill="#B9D4FF"/>
<path d="M130.444 86.5004C130.333 86.5663 130.222 86.6322 130.05 86.7495C129.755 86.9884 129.521 87.1758 129.288 87.3631C129.226 87.391 129.163 87.4189 129.045 87.4942C127.807 88.4346 126.625 89.3276 125.442 90.2206C125.442 90.2206 125.489 90.2577 125.42 90.2518C124.666 90.7718 123.981 91.2977 123.295 91.8236C123.295 91.8236 123.315 91.8355 123.265 91.8367C123.039 91.983 122.862 92.1281 122.685 92.2733C122.685 92.2733 122.67 92.2779 122.665 92.2843C122.064 92.7068 121.475 93.1343 120.867 93.5317C120.703 93.6385 120.481 93.6974 120.283 93.7034C119.617 93.7235 118.95 93.71 118.182 93.6664C117.987 93.6043 117.894 93.585 117.801 93.5657C119.805 92.0526 121.804 90.5314 123.816 89.0283C127.02 86.6346 130.233 84.2525 133.443 81.8665C134.36 81.1852 134.48 81.1833 135.385 81.8563C140.344 85.5435 145.302 89.2321 150.259 92.9213C150.467 93.076 150.667 93.2411 151.045 93.5384C149.684 93.6788 148.511 94.1697 147.43 93.1744C147.079 92.8519 146.664 92.6007 146.23 92.3021C146.181 92.2872 146.172 92.2737 146.145 92.2334C145.925 92.0669 145.731 91.9407 145.538 91.8145C145.538 91.8145 145.523 91.8355 145.512 91.7851C144.985 91.3649 144.469 90.9951 143.954 90.6254C143.954 90.6254 143.915 90.5671 143.862 90.5227C143.671 90.3906 143.534 90.303 143.397 90.2154C143.397 90.2154 143.343 90.259 143.343 90.1983C142.588 89.5916 141.833 89.0456 141.077 88.4995C141.077 88.4995 141.058 88.5247 141.048 88.4722C140.334 87.9053 139.63 87.391 138.926 86.8767C138.926 86.8767 138.88 86.8217 138.828 86.7791C138.64 86.6458 138.505 86.5551 138.37 86.4644C138.37 86.4644 138.338 86.5026 138.322 86.445C138.074 86.2307 137.843 86.0739 137.612 85.9171C137.612 85.9171 137.602 85.9372 137.587 85.8892C137.442 85.7563 137.31 85.6713 137.179 85.5863C137.174 85.5447 137.153 85.5161 137.06 85.4583C136.678 85.1839 136.35 84.9517 136.022 84.7196C136.022 84.7196 135.985 84.6726 135.935 84.6325C135.745 84.5011 135.606 84.4097 135.467 84.3184C135.467 84.3184 135.439 84.3516 135.43 84.2962C135.083 83.9899 134.746 83.739 134.402 83.4838C134.027 83.7899 133.698 84.0582 133.368 84.3265C133.368 84.3265 133.396 84.3486 133.339 84.3501C132.783 84.7354 132.286 85.1192 131.788 85.5029L131.73 85.5028C131.73 85.5028 131.682 85.5356 131.627 85.5788C131.454 85.723 131.337 85.824 131.22 85.9249C131.22 85.9249 131.237 85.9376 131.185 85.9405C130.904 86.1291 130.674 86.3148 130.444 86.5004Z" fill="#B9D4FF"/>
<path d="M129.993 110.526C129.993 105.884 129.993 101.241 129.993 96.5596C131.096 96.5596 132.116 96.5596 133.244 96.5596C133.244 101.182 133.244 105.795 133.178 110.484C132.072 110.549 131.032 110.538 129.993 110.526Z" fill="#B9D4FF"/>
<path d="M135.597 110.538C135.597 105.893 135.597 101.249 135.597 96.5635C136.694 96.5635 137.734 96.5635 138.843 96.5635C138.843 101.204 138.843 105.8 138.781 110.475C137.678 110.549 136.638 110.544 135.597 110.538Z" fill="#B9D4FF"/>
<path d="M141.212 110.539C141.212 105.894 141.212 101.25 141.212 96.5635C142.285 96.5635 143.305 96.5635 144.395 96.5635C144.395 101.202 144.395 105.822 144.312 110.509C143.223 110.564 142.217 110.551 141.212 110.539Z" fill="#B9D4FF"/>
<path d="M124.474 110.576C124.462 107.148 124.449 103.721 124.439 100.294C124.435 99.0747 124.438 97.855 124.438 96.5791C125.493 96.5791 126.507 96.5791 127.63 96.5791C127.63 101.182 127.63 105.796 127.563 110.485C126.489 110.566 125.482 110.571 124.474 110.576Z" fill="#B9D4FF"/>
<path d="M146.871 110.566C146.871 110.566 146.875 110.574 146.879 110.575C146.856 110.415 146.804 110.254 146.803 110.094C146.799 105.732 146.8 101.369 146.801 97.007C146.801 96.869 146.817 96.731 146.828 96.5596C147.885 96.5596 148.904 96.5596 149.992 96.5596C149.992 101.201 149.992 105.82 149.912 110.508C148.845 110.572 147.858 110.569 146.871 110.566Z" fill="#B9D4FF"/>
<path d="M121.992 110.517C121.954 110.575 121.963 110.573 121.893 110.574C120.839 110.574 119.855 110.573 118.872 110.573C118.863 105.972 118.855 101.37 118.85 96.7694C118.85 96.7029 118.888 96.6365 118.912 96.5576C119.941 96.5576 120.963 96.5576 122.029 96.5576C122.029 101.214 122.029 105.837 121.992 110.517Z" fill="#B9D4FF"/>
<path d="M117.759 93.5713C117.894 93.5844 117.987 93.6037 118.115 93.6567C118.005 93.6528 117.861 93.6151 117.759 93.5713Z" fill="#B9D4FF"/>
<path d="M136.649 91.6854C136.534 91.7889 136.418 91.8924 136.243 92.0457C136.067 92.1836 135.95 92.2716 135.833 92.3597C135.716 92.4039 135.599 92.448 135.394 92.5303C134.677 92.5653 134.046 92.5622 133.416 92.5591C133.257 92.466 133.097 92.3729 132.871 92.2276C132.508 91.8667 132.212 91.5582 131.916 91.2496C131.872 91.1301 131.829 91.0106 131.743 90.8048C131.702 90.0917 131.704 89.4649 131.706 88.838C131.798 88.678 131.889 88.5179 132.033 88.2902C132.338 87.9529 132.591 87.6832 132.845 87.4135C133.018 87.3403 133.191 87.267 133.449 87.1525C134.117 87.0986 134.7 87.0859 135.283 87.0732C135.434 87.1462 135.585 87.2191 135.814 87.3358C136.018 87.4561 136.142 87.5325 136.267 87.6089C136.371 87.7239 136.475 87.839 136.63 88.0135C136.77 88.1889 136.86 88.3047 136.95 88.4206C137.014 88.5749 137.078 88.7292 137.16 88.9862C137.182 89.6265 137.185 90.1641 137.188 90.7018C137.116 90.8529 137.043 91.004 136.926 91.2329C136.804 91.4356 136.727 91.5605 136.649 91.6854Z" fill="#B9D4FF"/>
<g clip-path="url(#clip0_2001_3)">
<path d="M140.496 80.2565C131.027 80.2565 121.623 80.2565 112.213 80.2565C112.213 64.2226 112.213 48.1886 112.213 32.1416C127.127 32.1416 142.047 32.1416 156.987 32.1416C156.987 48.1711 156.987 64.2138 156.987 80.2565C151.522 80.2565 146.041 80.2565 140.496 80.2565ZM139.984 68.6699C139.984 62.9998 139.979 57.3298 139.995 51.6597C139.996 51.2451 139.875 51.0122 139.524 50.8006C137.92 49.8363 136.328 48.8539 134.746 47.8542C134.447 47.6647 134.243 47.68 133.954 47.8619C132.37 48.858 130.778 49.8429 129.174 50.8065C128.82 51.0197 128.709 51.2587 128.71 51.6685C128.725 57.6156 128.72 63.5628 128.72 69.51C128.72 69.714 128.72 69.918 128.72 70.1158C129.141 70.1158 129.475 70.1158 129.804 70.1158C129.957 68.8885 129.957 68.8885 131.065 68.6271C131.065 68.4241 131.065 68.2129 131.065 68.0016C131.065 66.2323 131.064 64.4631 131.066 62.6939C131.066 61.6956 131.198 61.5683 132.218 61.5679C133.667 61.5674 135.117 61.5657 136.566 61.5687C137.354 61.5704 137.531 61.7493 137.533 62.5541C137.537 63.8117 137.534 65.0694 137.534 66.327C137.534 67.1102 137.534 67.8934 137.534 68.668C138.735 68.8016 138.735 68.8016 138.909 70.106C139.254 70.106 139.6 70.106 139.984 70.106C139.984 69.6436 139.984 69.2203 139.984 68.6699ZM140.757 63.2965C140.757 65.5691 140.757 67.8417 140.757 70.0999C143.532 70.0999 146.226 70.0999 148.911 70.0999C148.911 66.2892 148.911 62.5248 148.911 58.7398C146.193 57.7973 143.499 56.863 140.757 55.9119C140.757 58.3941 140.757 60.7813 140.757 63.2965ZM125.325 56.8299C123.479 57.4694 121.633 58.1089 119.809 58.7409C119.809 62.5647 119.809 66.3463 119.809 70.1142C122.538 70.1142 125.217 70.1142 127.92 70.1142C127.92 65.3823 127.92 60.6825 127.92 55.934C127.061 56.2316 126.241 56.5156 125.325 56.8299ZM137.744 71.9528C141.895 71.9528 146.046 71.9528 150.217 71.9528C150.217 71.5793 150.217 71.2715 150.217 70.9421C139.624 70.9421 129.059 70.9421 118.479 70.9421C118.479 71.2809 118.479 71.5893 118.479 71.9528C124.877 71.9528 131.246 71.9528 137.744 71.9528ZM133.933 66.4962C133.933 65.1177 133.933 63.7391 133.933 62.3727C133.202 62.3727 132.555 62.3727 131.903 62.3727C131.903 64.5019 131.903 66.5864 131.903 68.6914C132.578 68.6914 133.226 68.6914 133.933 68.6914C133.933 67.9794 133.933 67.3017 133.933 66.4962ZM134.482 45.9216C134.311 45.9747 134.12 45.9952 133.972 46.0859C131.777 47.4306 129.587 48.7843 127.397 50.1371C127.288 50.204 127.137 50.2593 127.093 50.3586C127.034 50.4934 127.008 50.6896 127.066 50.8131C127.106 50.8986 127.327 50.9629 127.441 50.9346C127.62 50.8907 127.78 50.7649 127.942 50.6651C129.9 49.4599 131.864 48.2646 133.808 47.0371C134.21 46.7835 134.502 46.7904 134.898 47.0412C136.624 48.1346 138.371 49.1962 140.11 50.2691C140.4 50.4481 140.676 50.6644 140.987 50.7905C141.181 50.8688 141.43 50.8099 141.654 50.8126C141.553 50.5946 141.47 50.3648 141.342 50.1635C141.28 50.066 141.134 50.0212 141.025 49.954C138.871 48.6234 136.717 47.2931 134.482 45.9216ZM135.818 68.726C136.128 68.726 136.438 68.726 136.728 68.726C136.728 66.5389 136.728 64.4428 136.728 62.3713C136.029 62.3713 135.377 62.3713 134.757 62.3713C134.757 64.509 134.757 66.6043 134.757 68.726C135.103 68.726 135.399 68.726 135.818 68.726ZM143.32 55.9808C145.404 56.7023 147.485 57.4322 149.577 58.1308C149.762 58.1924 150.014 58.0494 150.235 58.0014C150.093 57.8302 149.983 57.5708 149.802 57.5014C148.019 56.8211 146.223 56.1726 144.432 55.5146C143.225 55.0712 142.018 54.627 140.822 54.1873C140.589 54.8752 140.817 55.2066 141.477 55.358C142.073 55.4948 142.644 55.7441 143.32 55.9808ZM119.308 57.3468C119.11 57.4222 118.892 57.4692 118.719 57.583C118.603 57.6595 118.548 57.8306 118.466 57.9593C118.615 58.0447 118.757 58.174 118.917 58.2019C119.047 58.2246 119.2 58.1296 119.34 58.0808C121.987 57.1627 124.625 56.2178 127.285 55.3435C127.926 55.1331 128.077 54.8291 127.882 54.1918C125.055 55.2363 122.23 56.2797 119.308 57.3468ZM135.974 40.0642C135.706 40.0483 135.475 40.0312 135.491 40.4372C135.52 41.1598 135.499 41.8843 135.499 42.6324C136.674 42.6324 137.811 42.6324 138.945 42.6324C138.649 42.1919 138.148 41.7735 138.154 41.3629C138.161 40.9407 138.663 40.5263 138.979 40.0642C137.972 40.0642 137.035 40.0642 135.974 40.0642ZM134.288 69.5071C133.08 69.5071 131.873 69.5071 130.624 69.5071C130.644 69.764 130.658 69.9417 130.671 70.112C133.161 70.112 135.602 70.112 138.082 70.112C138.064 69.8943 138.05 69.7165 138.033 69.5071C136.796 69.5071 135.606 69.5071 134.288 69.5071ZM133.986 43.9615C133.986 44.3186 133.986 44.6757 133.986 45.0416C134.255 45.0416 134.459 45.0416 134.718 45.0416C134.718 43.2865 134.73 41.5442 134.703 39.8024C134.699 39.5854 134.514 39.2062 134.373 39.1865C133.92 39.1232 133.99 39.5254 133.989 39.8109C133.983 41.1522 133.986 42.4936 133.986 43.9615Z" fill="#173571"/>
<path d="M139.984 68.7336C139.984 69.2204 139.984 69.6437 139.984 70.1061C139.6 70.1061 139.254 70.1061 138.909 70.1061C138.735 68.8017 138.735 68.8017 137.535 68.6681C137.535 67.8936 137.535 67.1104 137.535 66.3271C137.534 65.0695 137.538 63.8118 137.533 62.5542C137.531 61.7494 137.354 61.5705 136.566 61.5688C135.117 61.5658 133.667 61.5675 132.218 61.568C131.198 61.5684 131.066 61.6957 131.066 62.694C131.064 64.4632 131.065 66.2324 131.065 68.0017C131.065 68.213 131.065 68.4243 131.065 68.6272C129.957 68.8887 129.957 68.8887 129.804 70.1159C129.475 70.1159 129.141 70.1159 128.72 70.1159C128.72 69.9181 128.72 69.7141 128.72 69.5101C128.72 63.5629 128.725 57.6158 128.71 51.6686C128.709 51.2588 128.82 51.0198 129.174 50.8066C130.778 49.843 132.37 48.8581 133.954 47.862C134.243 47.6801 134.447 47.6648 134.746 47.8543C136.328 48.854 137.92 49.8364 139.524 50.8007C139.875 51.0124 139.996 51.2452 139.995 51.6598C139.979 57.3299 139.984 63 139.984 68.7336ZM135.292 52.5957C134.604 52.613 133.873 52.4868 133.236 52.6757C131.639 53.1491 130.76 54.9438 131.203 56.5749C131.648 58.2136 133.291 59.245 134.93 58.9146C136.449 58.6085 137.446 57.516 137.602 55.9858C137.75 54.5238 136.904 53.234 135.292 52.5957Z" fill="#B9D4FF"/>
<path d="M140.757 63.2327C140.757 60.7815 140.757 58.3943 140.757 55.9121C143.499 56.8633 146.193 57.7975 148.911 58.74C148.911 62.525 148.911 66.2894 148.911 70.1002C146.226 70.1002 143.532 70.1002 140.757 70.1002C140.757 67.8419 140.757 65.5693 140.757 63.2327ZM142.676 62.8897C143.772 64.5903 146.155 64.5573 147.219 62.9044C147.336 62.724 147.302 62.4473 147.338 62.2153C147.126 62.1989 146.895 62.121 146.704 62.177C145.966 62.3929 145.299 62.2877 144.745 61.7623C144.172 61.2194 144.029 60.542 144.226 59.7714C144.281 59.5561 144.204 59.3071 144.188 59.0736C143.935 59.1284 143.639 59.1164 143.437 59.249C142.267 60.018 141.964 61.4146 142.676 62.8897ZM145.032 68.8465C146.628 68.8465 146.628 68.8465 146.628 67.256C146.628 67.2135 146.627 67.171 146.628 67.1286C146.66 65.239 146.673 65.2541 144.791 65.2736C143.062 65.2915 143.062 65.2774 143.062 66.9881C143.062 68.8465 143.062 68.8465 145.032 68.8465Z" fill="#B9D4FF"/>
<path d="M125.372 56.8143C126.241 56.5152 127.061 56.2311 127.92 55.9336C127.92 60.6821 127.92 65.3819 127.92 70.1137C125.217 70.1137 122.537 70.1137 119.809 70.1137C119.809 66.3459 119.809 62.5643 119.809 58.7405C121.633 58.1084 123.479 57.469 125.372 56.8143ZM125.41 62.3341C125.623 62.1015 125.857 61.8845 126.042 61.6314C126.192 61.4257 126.283 61.1765 126.4 60.9466C126.183 60.8451 125.969 60.6666 125.747 60.6563C125.037 60.6233 124.548 60.3508 124.372 59.6274C124.358 59.5681 124.322 59.5057 124.278 59.4636C124.149 59.3403 123.996 59.1191 123.88 59.1349C123.713 59.1574 123.483 59.3279 123.433 59.4842C123.177 60.2838 122.673 60.6832 121.821 60.6794C121.648 60.6786 121.378 60.8282 121.329 60.9696C121.282 61.1059 121.413 61.3908 121.552 61.4902C122.217 61.9669 122.453 62.5491 122.184 63.3447C122.128 63.5125 122.176 63.8581 122.276 63.9047C122.448 63.9843 122.754 63.9694 122.907 63.8593C123.552 63.3946 124.163 63.3555 124.79 63.8658C124.838 63.9053 124.898 63.935 124.958 63.9563C125.415 64.1205 125.644 63.9303 125.575 63.4382C125.527 63.1023 125.465 62.7686 125.41 62.3341ZM122.072 66.5212C122.072 67.0098 122.08 67.4985 122.071 67.987C122.06 68.5373 122.334 68.8264 122.869 68.8412C123.527 68.8593 124.187 68.8573 124.845 68.8417C125.355 68.8296 125.622 68.5373 125.631 68.0333C125.642 67.375 125.651 66.7157 125.628 66.058C125.61 65.5649 125.35 65.2728 124.822 65.2764C124.27 65.2801 123.717 65.2759 123.165 65.2769C122.232 65.2786 122.08 65.4359 122.072 66.5212Z" fill="#B9D4FF"/>
<path d="M137.68 71.9521C131.246 71.9521 124.877 71.9521 118.479 71.9521C118.479 71.5886 118.479 71.2802 118.479 70.9414C129.059 70.9414 139.624 70.9414 150.217 70.9414C150.217 71.2708 150.217 71.5786 150.217 71.9521C146.046 71.9521 141.895 71.9521 137.68 71.9521Z" fill="#B9D4FF"/>
<path d="M133.933 66.5595C133.933 67.3011 133.933 67.9788 133.933 68.6908C133.226 68.6908 132.578 68.6908 131.903 68.6908C131.903 66.5858 131.903 64.5013 131.903 62.3721C132.555 62.3721 133.202 62.3721 133.933 62.3721C133.933 63.7385 133.933 65.1171 133.933 66.5595Z" fill="#B9D4FF"/>
<path d="M134.522 45.9414C136.717 47.2923 138.871 48.6227 141.025 49.9533C141.134 50.0204 141.28 50.0652 141.342 50.1628C141.47 50.364 141.553 50.5938 141.654 50.8119C141.43 50.8092 141.181 50.8681 140.987 50.7897C140.676 50.6636 140.4 50.4473 140.11 50.2684C138.371 49.1954 136.624 48.1339 134.898 47.0404C134.502 46.7896 134.21 46.7827 133.808 47.0364C131.864 48.2638 129.9 49.4591 127.942 50.6643C127.78 50.7642 127.62 50.89 127.441 50.9339C127.327 50.9622 127.106 50.8978 127.066 50.8124C127.008 50.6888 127.034 50.4926 127.093 50.3579C127.137 50.2586 127.288 50.2032 127.397 50.1363C129.587 48.7836 131.777 47.4298 133.972 46.0851C134.12 45.9945 134.311 45.974 134.522 45.9414Z" fill="#B9D4FF"/>
<path d="M135.757 68.7258C135.399 68.7258 135.103 68.7258 134.757 68.7258C134.757 66.6041 134.757 64.5088 134.757 62.3711C135.377 62.3711 136.029 62.3711 136.728 62.3711C136.728 64.4426 136.728 66.5387 136.728 68.7258C136.438 68.7258 136.128 68.7258 135.757 68.7258Z" fill="#B9D4FF"/>
<path d="M143.273 55.9624C142.644 55.7442 142.073 55.495 141.477 55.3582C140.817 55.2068 140.588 54.8753 140.822 54.1875C142.018 54.6272 143.225 55.0714 144.432 55.5148C146.223 56.1728 148.019 56.8212 149.802 57.5016C149.983 57.5709 150.093 57.8304 150.235 58.0016C150.014 58.0496 149.762 58.1926 149.577 58.131C147.485 57.4324 145.404 56.7025 143.273 55.9624Z" fill="#B9D4FF"/>
<path d="M119.357 57.3346C122.23 56.2793 125.055 55.2359 127.882 54.1914C128.077 54.8288 127.926 55.1327 127.285 55.3431C124.624 56.2175 121.987 57.1623 119.34 58.0805C119.2 58.1292 119.047 58.2242 118.917 58.2015C118.757 58.1736 118.615 58.0444 118.466 57.9589C118.548 57.8302 118.603 57.6591 118.719 57.5826C118.892 57.4688 119.11 57.4218 119.357 57.3346Z" fill="#B9D4FF"/>
<path d="M136.036 40.0639C137.035 40.0639 137.972 40.0639 138.979 40.0639C138.663 40.526 138.161 40.9404 138.154 41.3626C138.148 41.7732 138.649 42.1916 138.945 42.6321C137.811 42.6321 136.674 42.6321 135.499 42.6321C135.499 41.884 135.52 41.1595 135.491 40.4369C135.475 40.0309 135.706 40.048 136.036 40.0639Z" fill="#B9D4FF"/>
<path d="M134.352 69.5078C135.606 69.5078 136.796 69.5078 138.033 69.5078C138.05 69.7171 138.064 69.895 138.082 70.1127C135.602 70.1127 133.161 70.1127 130.671 70.1127C130.658 69.9424 130.644 69.7646 130.624 69.5078C131.873 69.5078 133.08 69.5078 134.352 69.5078Z" fill="#B9D4FF"/>
<path d="M133.986 43.898C133.986 42.4934 133.983 41.152 133.989 39.8107C133.99 39.5252 133.92 39.123 134.373 39.1863C134.514 39.206 134.7 39.5852 134.703 39.8023C134.73 41.544 134.718 43.2863 134.718 45.0414C134.46 45.0414 134.255 45.0414 133.986 45.0414C133.986 44.6756 133.986 44.3184 133.986 43.898Z" fill="#B9D4FF"/>
<path d="M135.342 52.6076C136.904 53.234 137.75 54.5238 137.601 55.9858C137.446 57.516 136.449 58.6085 134.93 58.9147C133.29 59.245 131.648 58.2136 131.203 56.5749C130.76 54.9438 131.639 53.1492 133.236 52.6757C133.873 52.4868 134.603 52.613 135.342 52.6076ZM131.905 56.0788C132.094 57.1787 132.738 57.8702 133.813 58.1334C134.826 58.3814 135.67 58.036 136.299 57.2409C136.955 56.4135 137.005 55.4817 136.535 54.5484C136.026 53.5364 134.832 53.0349 133.719 53.3208C132.548 53.6212 131.88 54.5907 131.905 56.0788Z" fill="#B9D4FF"/>
<path d="M144.97 68.8463C143.062 68.8463 143.062 68.8463 143.062 66.9878C143.062 65.2771 143.062 65.2912 144.791 65.2733C146.672 65.2539 146.66 65.2387 146.628 67.1283C146.627 67.1708 146.628 67.2133 146.627 67.2558C146.627 68.8462 146.627 68.8462 144.97 68.8463ZM145.842 67.009C145.842 66.7184 145.842 66.4278 145.842 66.1128C145.147 66.1128 144.525 66.1128 143.894 66.1128C143.894 66.7733 143.894 67.3937 143.894 68.0041C144.567 68.0041 145.19 68.0041 145.842 68.0041C145.842 67.6774 145.842 67.4027 145.842 67.009Z" fill="#173571"/>
<path d="M125.41 62.3837C125.465 62.7683 125.527 63.102 125.575 63.4379C125.645 63.93 125.415 64.1203 124.958 63.9561C124.898 63.9347 124.838 63.9051 124.79 63.8655C124.163 63.3552 123.553 63.3943 122.907 63.859C122.754 63.9691 122.448 63.984 122.276 63.9044C122.176 63.8579 122.128 63.5122 122.185 63.3445C122.453 62.5488 122.217 61.9667 121.552 61.4899C121.413 61.3906 121.282 61.1056 121.329 60.9694C121.378 60.8279 121.649 60.6783 121.821 60.6791C122.673 60.683 123.177 60.2835 123.433 59.4839C123.483 59.3276 123.714 59.1572 123.88 59.1346C123.996 59.1188 124.149 59.3401 124.278 59.4633C124.322 59.5054 124.358 59.5678 124.372 59.6271C124.548 60.3505 125.037 60.623 125.747 60.656C125.969 60.6663 126.183 60.8448 126.4 60.9463C126.283 61.1762 126.192 61.4254 126.042 61.6311C125.858 61.8843 125.623 62.1012 125.41 62.3837ZM123.599 62.6319C123.936 62.6801 124.273 62.7283 124.512 62.7625C124.669 62.2934 124.832 61.809 124.946 61.4677C124.575 61.1884 124.187 60.8968 123.872 60.6596C123.514 60.9102 123.105 61.1969 122.775 61.4282C122.913 61.8512 123.07 62.3317 123.229 62.8191C123.282 62.7945 123.396 62.7421 123.599 62.6319Z" fill="#173571"/>
<path d="M122.072 66.4625C122.08 65.4369 122.232 65.2796 123.165 65.2779C123.717 65.2769 124.27 65.2811 124.822 65.2774C125.35 65.2738 125.61 65.5659 125.628 66.059C125.651 66.7167 125.642 67.376 125.631 68.0343C125.622 68.5383 125.355 68.8305 124.845 68.8427C124.187 68.8583 123.527 68.8603 122.869 68.8421C122.334 68.8274 122.06 68.5383 122.071 67.988C122.08 67.4995 122.072 67.0108 122.072 66.4625ZM124.854 67.0096C124.854 66.7189 124.854 66.4282 124.854 66.1132C124.157 66.1132 123.534 66.1132 122.902 66.1132C122.902 66.7738 122.902 67.3944 122.902 68.0049C123.576 68.0049 124.2 68.0049 124.854 68.0049C124.854 67.6787 124.854 67.4038 124.854 67.0096Z" fill="#173571"/>
<path d="M131.901 56.0226C131.88 54.5907 132.548 53.6213 133.719 53.3208C134.833 53.0349 136.027 53.5364 136.536 54.5484C137.005 55.4817 136.955 56.4135 136.299 57.2409C135.67 58.036 134.826 58.3814 133.813 58.1334C132.738 57.8703 132.094 57.1787 131.901 56.0226ZM134.737 55.4003C134.736 55.1022 134.776 54.7955 134.718 54.5092C134.684 54.3436 134.489 54.2109 134.367 54.0634C134.235 54.2007 134.015 54.3216 133.986 54.4778C133.808 55.4494 134.046 56.2893 134.928 56.8339C135.082 56.929 135.338 56.8593 135.547 56.8656C135.527 56.6756 135.57 56.4419 135.474 56.3046C135.27 56.0116 134.994 55.7685 134.737 55.4003Z" fill="#B9D4FF"/>
<path d="M145.842 67.0691C145.842 67.4033 145.842 67.6779 145.842 68.0046C145.19 68.0046 144.567 68.0046 143.894 68.0046C143.894 67.3942 143.894 66.7738 143.894 66.1133C144.525 66.1133 145.147 66.1133 145.842 66.1133C145.842 66.4283 145.842 66.7189 145.842 67.0691Z" fill="#B9D4FF"/>
<path d="M123.554 62.6613C123.396 62.7427 123.282 62.7951 123.229 62.8197C123.07 62.3323 122.913 61.8518 122.775 61.4287C123.105 61.1975 123.514 60.9108 123.872 60.6602C124.187 60.8974 124.575 61.189 124.946 61.4682C124.832 61.8096 124.669 62.2939 124.512 62.763C124.274 62.7289 123.936 62.6807 123.554 62.6613Z" fill="#B9D4FF"/>
<path d="M124.854 67.0684C124.854 67.4029 124.854 67.6778 124.854 68.004C124.201 68.004 123.576 68.004 122.902 68.004C122.902 67.3935 122.902 66.773 122.902 66.1123C123.534 66.1123 124.157 66.1123 124.854 66.1123C124.854 66.4273 124.854 66.718 124.854 67.0684Z" fill="#B9D4FF"/>
<path d="M134.742 55.4517C134.994 55.7676 135.27 56.0107 135.474 56.3037C135.569 56.441 135.527 56.6747 135.547 56.8647C135.338 56.8583 135.082 56.9281 134.928 56.833C134.046 56.2884 133.807 55.4485 133.986 54.4769C134.015 54.3207 134.235 54.1997 134.367 54.0625C134.489 54.21 134.684 54.3427 134.718 54.5083C134.776 54.7946 134.736 55.1012 134.742 55.4517Z" fill="#B9D4FF"/>
<rect width="6.528" height="5.76" transform="translate(141.776 58.625)" fill="#B9D4FF"/>
<rect width="6.528" height="5.76" transform="translate(121.04 58.625)" fill="#B9D4FF"/>
</g>
<rect width="37" height="31" transform="translate(159.48 112.864)" fill="#173571"/>
<path d="M176.896 141.632C172.399 141.632 167.964 141.632 163.486 141.632C163.486 136.609 163.486 131.617 163.486 126.571C163.723 126.571 163.941 126.571 164.158 126.571C167.015 126.571 169.872 126.581 172.728 126.555C173.003 126.552 173.352 126.392 173.537 126.188C174.75 124.855 175.937 123.498 177.107 122.128C177.269 121.938 177.365 121.631 177.369 121.377C177.393 119.817 177.375 118.257 177.384 116.697C177.388 115.948 177.748 115.748 178.424 116.076C178.579 116.151 178.77 116.172 178.946 116.177C179.473 116.191 180 116.172 180.526 116.189C181 116.204 181.285 116.448 181.292 116.943C181.3 117.551 181.306 118.159 181.289 118.766C181.276 119.247 181.01 119.512 180.524 119.519C179.901 119.527 179.278 119.521 178.6 119.521C178.6 120.274 178.584 120.978 178.612 121.681C178.618 121.836 178.755 122.003 178.868 122.134C180.037 123.478 181.221 124.81 182.382 126.162C182.642 126.464 182.912 126.582 183.313 126.58C186.15 126.563 188.986 126.571 191.822 126.571C192.04 126.571 192.258 126.571 192.505 126.571C192.505 131.602 192.505 136.577 192.505 141.632C187.31 141.632 182.133 141.632 176.896 141.632ZM178.58 131.428C178.695 131.389 178.812 131.355 178.925 131.312C179.963 130.924 180.598 130.176 180.755 129.089C180.922 127.926 180.505 126.968 179.51 126.319C178.562 125.701 177.566 125.687 176.582 126.243C175.453 126.881 174.925 128.248 175.303 129.491C175.71 130.831 176.917 131.573 178.58 131.428ZM178.598 139.268C178.598 139.505 178.598 139.743 178.598 139.997C179.127 139.997 179.592 140.014 180.056 139.993C180.601 139.967 180.919 139.681 180.92 139.114C180.924 137.295 180.92 135.477 180.922 133.658C180.922 133.146 180.626 132.848 180.164 132.794C179.656 132.735 179.135 132.781 178.598 132.781C178.598 134.948 178.598 137.048 178.598 139.268ZM175.057 134.777C175.057 136.191 175.053 137.605 175.06 139.02C175.063 139.684 175.349 139.975 176.012 139.997C176.451 140.012 176.891 140 177.339 140C177.339 137.566 177.339 135.175 177.339 132.769C177.177 132.769 177.057 132.769 176.937 132.769C175.079 132.76 175.057 132.782 175.057 134.777ZM170.106 130.855C170.099 131.259 170.079 131.664 170.09 132.067C170.104 132.591 170.368 132.899 170.913 132.909C171.358 132.917 171.803 132.923 172.248 132.907C172.825 132.886 173.068 132.604 173.096 131.957C173.152 130.715 172.982 130.327 172.342 130.237C172.283 130.229 172.221 130.229 172.161 130.229C171.777 130.229 171.376 130.161 171.013 130.25C170.699 130.327 170.428 130.581 170.106 130.855ZM182.885 131.078C182.885 131.381 182.873 131.685 182.886 131.987C182.914 132.636 183.18 132.897 183.823 132.91C184.227 132.918 184.632 132.912 185.036 132.911C185.577 132.909 185.848 132.624 185.892 132.097C185.996 130.866 185.82 130.372 185.225 130.247C185.147 130.231 185.064 130.23 184.984 130.23C184.599 130.228 184.215 130.233 183.831 130.228C183.312 130.221 182.987 130.451 182.885 131.078ZM187.906 130.45C187.428 131.089 187.561 131.8 187.759 132.469C187.818 132.669 188.209 132.847 188.472 132.891C188.886 132.962 189.32 132.904 189.745 132.913C190.246 132.923 190.56 132.696 190.635 132.198C190.806 131.062 190.632 130.353 190.068 130.296C189.382 130.226 188.676 130.344 187.906 130.45ZM168.163 132.604C168.209 132.013 168.314 131.417 168.271 130.833C168.255 130.624 167.902 130.311 167.666 130.273C167.134 130.187 166.568 130.179 166.038 130.27C165.783 130.313 165.437 130.618 165.382 130.861C165.278 131.322 165.318 131.828 165.373 132.307C165.395 132.492 165.6 132.778 165.757 132.803C166.539 132.932 167.341 133.105 168.163 132.604ZM167.53 137.632C168.021 137.625 168.323 137.331 168.324 136.888C168.327 136.256 168.612 135.528 167.906 135.048C167.873 135.026 167.839 135.002 167.802 134.989C166.238 134.406 165.288 135.069 165.337 136.709C165.338 136.75 165.336 136.791 165.339 136.831C165.379 137.328 165.636 137.614 166.146 137.629C166.57 137.641 166.995 137.632 167.53 137.632ZM170.434 137.501C171.133 137.535 171.832 137.592 172.53 137.584C172.684 137.583 172.956 137.362 172.967 137.226C173.014 136.612 173.168 135.917 172.946 135.394C172.605 134.591 171.729 135.001 171.086 134.978C170.789 134.967 170.284 135.193 170.215 135.416C170.014 136.075 169.893 136.794 170.434 137.501ZM185.757 135.308C185.185 134.654 184.426 135.033 183.753 134.961C183.246 134.907 182.972 135.232 182.894 135.71C182.725 136.748 182.925 137.432 183.435 137.596C183.511 137.621 183.594 137.629 183.674 137.629C184.16 137.632 184.646 137.64 185.132 137.627C185.558 137.616 185.844 137.364 185.867 136.962C185.898 136.445 185.827 135.922 185.757 135.308ZM189.344 134.95C189.06 134.95 188.777 134.948 188.493 134.951C187.949 134.956 187.688 135.271 187.627 135.776C187.5 136.836 187.689 137.438 188.187 137.598C188.263 137.622 188.347 137.629 188.427 137.629C188.892 137.632 189.358 137.641 189.823 137.629C190.366 137.615 190.625 137.307 190.641 136.78C190.648 136.558 190.643 136.335 190.643 136.112C190.641 135.175 190.418 134.957 189.344 134.95Z" fill="#B9D4FF"/>
<path d="M175.844 122.288C174.85 123.419 173.895 124.519 172.92 125.602C172.774 125.764 172.538 125.948 172.342 125.949C168.801 125.97 165.259 125.964 161.646 125.964C161.729 125.8 161.774 125.678 161.847 125.574C162.588 124.514 163.322 123.447 164.09 122.406C164.218 122.233 164.502 122.082 164.715 122.081C168.319 122.061 171.923 122.065 175.528 122.074C175.644 122.075 175.76 122.19 175.844 122.288Z" fill="#B9D4FF"/>
<path d="M189.055 122.066C189.844 122.066 190.573 122.048 191.301 122.077C191.488 122.085 191.739 122.188 191.844 122.332C192.686 123.49 193.5 124.668 194.363 125.899C194.185 125.926 194.059 125.961 193.934 125.961C190.555 125.964 187.177 125.968 183.798 125.953C183.585 125.952 183.306 125.866 183.171 125.717C182.112 124.552 181.081 123.361 179.942 122.066C183.038 122.066 186.016 122.066 189.055 122.066Z" fill="#B9D4FF"/>
<path d="M179.412 129.168C178.884 129.683 178.287 129.495 177.732 129.393C177.586 129.366 177.439 129.033 177.397 128.82C177.34 128.527 177.386 128.215 177.38 127.912C177.373 127.499 177.495 127.173 177.968 127.159C178.434 127.144 178.6 127.441 178.598 127.867C178.598 127.968 178.598 128.068 178.598 128.212C179.11 128.294 179.631 128.399 179.412 129.168Z" fill="#B9D4FF"/>
<g clip-path="url(#clip1_2001_3)">
<path d="M93.6041 148.441C85.7383 148.441 77.9145 148.441 70.0874 148.441C70.0874 135.819 70.0874 123.196 70.0874 110.565C82.3949 110.565 94.7057 110.565 107.03 110.565C107.03 123.185 107.03 135.813 107.03 148.441C102.576 148.441 98.1108 148.441 93.6041 148.441ZM95.9995 129.083C95.6133 129.083 95.2271 129.083 94.8382 129.083C94.8382 133.381 94.8382 137.618 94.8382 141.889C94.98 141.889 95.1028 141.889 95.2255 141.889C97.2274 141.889 99.2292 141.89 101.231 141.889C102.002 141.889 102.256 141.632 102.256 140.851C102.257 137.071 102.257 133.291 102.256 129.512C102.256 129.377 102.245 129.243 102.237 129.083C100.167 129.083 98.125 129.083 95.9995 129.083ZM75.376 132.523C75.376 135.309 75.3755 138.095 75.3763 140.881C75.3766 141.627 75.6393 141.888 76.3892 141.889C78.3772 141.89 80.3652 141.889 82.3532 141.889C82.4747 141.889 82.5963 141.889 82.7213 141.889C82.7213 137.602 82.7213 133.357 82.7213 129.104C80.2602 129.104 77.8292 129.104 75.376 129.104C75.376 130.229 75.376 131.334 75.376 132.523ZM91.1504 140.922C91.1504 141.238 91.1504 141.553 91.1504 141.86C91.8787 141.86 92.5556 141.86 93.2315 141.86C93.2315 137.595 93.2315 133.36 93.2315 129.114C90.2541 129.114 87.2968 129.114 84.3389 129.114C84.3389 133.383 84.3389 137.62 84.3389 141.867C85.0361 141.867 85.7137 141.867 86.4217 141.867C86.4217 140.756 86.4079 139.667 86.4294 138.577C86.4367 138.205 86.4726 137.813 86.5994 137.468C86.9867 136.415 88.0578 135.814 89.138 135.99C90.2792 136.176 91.1001 137.074 91.1404 138.235C91.1705 139.102 91.149 139.97 91.1504 140.922ZM88.1861 124.342C84.7144 124.342 81.2426 124.342 77.7708 124.342C77.2669 124.342 76.7627 124.334 76.259 124.345C75.7499 124.356 75.3947 124.677 75.3773 125.117C75.3602 125.548 75.6611 125.862 76.1593 125.932C76.6196 125.997 76.8601 126.222 76.8268 126.677C76.8057 126.966 76.6522 127.245 76.5696 127.494C84.7252 127.494 92.9595 127.494 101.08 127.494C101.024 127.16 100.922 126.834 100.927 126.51C100.933 126.05 101.287 125.961 101.678 125.89C102.045 125.824 102.245 125.533 102.25 125.158C102.256 124.804 102.083 124.534 101.738 124.423C101.556 124.364 101.355 124.346 101.163 124.345C96.8655 124.341 92.5678 124.342 88.1861 124.342ZM91.4748 121.472C90.9293 121.259 90.3806 121.054 89.8415 120.826C89.7392 120.783 89.6091 120.651 89.6048 120.556C89.5817 120.031 89.5938 119.505 89.5938 118.957C90.5365 118.957 91.4318 118.976 92.3252 118.944C92.559 118.935 92.8446 118.822 93.0037 118.657C93.2291 118.424 93.0416 118.152 92.8702 117.946C92.5563 117.569 92.5453 117.224 92.8403 116.814C92.9751 116.627 93.0639 116.318 93.0106 116.105C92.9254 115.765 92.5733 115.78 92.2717 115.781C91.392 115.785 90.5123 115.783 89.6443 115.783C89.4511 115.207 89.1415 114.958 88.7195 115.014C88.2685 115.073 88.0403 115.403 88.0399 116.002C88.0388 117.458 88.0311 118.914 88.0465 120.369C88.0495 120.651 87.9697 120.785 87.7001 120.884C86.5089 121.322 85.3261 121.783 84.1414 122.238C83.7403 122.392 83.3426 122.555 82.838 122.755C86.8727 122.755 90.7759 122.755 94.679 122.755C94.6823 122.737 94.6856 122.718 94.6889 122.7C93.6385 122.296 92.588 121.893 91.4748 121.472ZM89.5604 138.136C89.3409 137.686 89.0153 137.466 88.6687 137.534C88.2308 137.62 87.996 137.951 87.9942 138.501C87.991 139.451 87.9933 140.402 87.9932 141.352C87.9932 141.527 87.9932 141.702 87.9932 141.868C88.5533 141.868 89.0514 141.868 89.5707 141.868C89.5707 140.633 89.5707 139.42 89.5604 138.136Z" fill="#173571"/>
<path d="M96.0412 129.083C98.1249 129.083 100.167 129.083 102.237 129.083C102.244 129.243 102.256 129.377 102.256 129.512C102.256 133.292 102.257 137.071 102.256 140.851C102.256 141.632 102.002 141.889 101.231 141.889C99.2292 141.89 97.2273 141.889 95.2255 141.889C95.1027 141.889 94.9799 141.889 94.8381 141.889C94.8381 137.618 94.8381 133.381 94.8381 129.083C95.227 129.083 95.6132 129.083 96.0412 129.083ZM98.5872 134.328C98.7542 134.108 99.0155 133.907 99.0665 133.663C99.1472 133.276 99.108 132.859 99.0805 132.457C99.0523 132.044 98.6823 131.736 98.2884 131.749C97.89 131.763 97.5602 132.084 97.5422 132.502C97.5266 132.864 97.5268 133.226 97.5391 133.588C97.5584 134.158 97.9401 134.444 98.5872 134.328ZM98.2134 135.958C97.6766 136.141 97.5427 136.317 97.5362 136.861C97.5325 137.167 97.5284 137.474 97.5382 137.78C97.5532 138.249 97.8899 138.594 98.315 138.59C98.7422 138.586 99.0735 138.244 99.092 137.772C99.1034 137.48 99.0973 137.187 99.0942 136.895C99.0876 136.285 98.8928 136.061 98.2134 135.958Z" fill="#B9D4FF"/>
<path d="M75.3759 132.498C75.3759 131.351 75.3759 130.246 75.3759 129.121C77.829 129.121 80.2601 129.121 82.7212 129.121C82.7212 133.374 82.7212 137.619 82.7212 141.906C82.5962 141.906 82.4746 141.906 82.353 141.906C80.365 141.906 78.3771 141.907 76.3891 141.906C75.6392 141.906 75.3764 141.644 75.3762 140.898C75.3754 138.112 75.3759 135.326 75.3759 132.498ZM79.7323 132.063C79.2205 131.474 78.4129 131.864 78.3612 132.431C78.3211 132.872 78.3238 133.323 78.3696 133.763C78.4108 134.159 78.7134 134.375 79.0916 134.398C79.4565 134.421 79.8167 134.23 79.8448 133.872C79.8903 133.292 79.8025 132.702 79.7323 132.063ZM78.3326 137.247C78.3373 137.471 78.3194 137.698 78.3515 137.917C78.4118 138.331 78.793 138.636 79.1736 138.606C79.5743 138.575 79.8953 138.248 79.9119 137.827C79.9263 137.463 79.9271 137.099 79.9113 136.735C79.893 136.316 79.563 135.99 79.1627 135.966C78.7949 135.944 78.4304 136.232 78.3588 136.625C78.3267 136.802 78.34 136.987 78.3326 137.247Z" fill="#B9D4FF"/>
<path d="M91.1502 140.88C91.1487 139.97 91.1702 139.102 91.1402 138.235C91.0999 137.074 90.279 136.176 89.1377 135.99C88.0575 135.814 86.9865 136.415 86.5991 137.468C86.4724 137.813 86.4365 138.205 86.4291 138.577C86.4077 139.666 86.4215 140.756 86.4215 141.867C85.7134 141.867 85.0359 141.867 84.3386 141.867C84.3386 137.62 84.3386 133.383 84.3386 129.114C87.2965 129.114 90.2538 129.114 93.2312 129.114C93.2312 133.36 93.2312 137.595 93.2312 141.859C92.5554 141.859 91.8785 141.859 91.1502 141.859C91.1502 141.553 91.1502 141.237 91.1502 140.88ZM86.4005 133.339C86.4006 133.395 86.3972 133.451 86.4014 133.507C86.4412 134.044 86.7763 134.404 87.221 134.39C87.6784 134.376 87.9791 134.015 87.9853 133.467C87.9886 133.174 87.9926 132.879 87.9839 132.586C87.9695 132.105 87.6511 131.761 87.2198 131.749C86.8202 131.737 86.4585 132.061 86.41 132.507C86.3829 132.756 86.4021 133.01 86.4005 133.339ZM91.1216 133.962C91.1516 133.453 91.2266 132.942 91.1978 132.436C91.1735 132.011 90.7685 131.722 90.3865 131.749C89.9725 131.778 89.6641 132.112 89.6485 132.564C89.638 132.87 89.6532 133.177 89.6443 133.483C89.6331 133.87 89.7734 134.169 90.1392 134.32C90.5313 134.483 90.8415 134.337 91.1216 133.962Z" fill="#B9D4FF"/>
<path d="M88.228 124.342C92.5677 124.342 96.8654 124.341 101.163 124.345C101.355 124.345 101.556 124.364 101.738 124.422C102.083 124.533 102.256 124.804 102.25 125.158C102.244 125.533 102.045 125.824 101.678 125.89C101.287 125.961 100.933 126.05 100.927 126.509C100.922 126.834 101.024 127.16 101.08 127.494C92.9594 127.494 84.7251 127.494 76.5695 127.494C76.6521 127.245 76.8056 126.966 76.8267 126.677C76.86 126.222 76.6194 125.997 76.1592 125.932C75.661 125.862 75.3601 125.548 75.3772 125.116C75.3946 124.676 75.7497 124.356 76.2589 124.345C76.7626 124.333 77.2668 124.342 77.7707 124.342C81.2425 124.342 84.7142 124.342 88.228 124.342Z" fill="#B9D4FF"/>
<path d="M91.5061 121.48C92.5879 121.892 93.6384 122.296 94.6888 122.699C94.6855 122.718 94.6822 122.737 94.6789 122.755C90.7758 122.755 86.8726 122.755 82.8379 122.755C83.3425 122.555 83.7402 122.392 84.1413 122.238C85.326 121.782 86.5088 121.322 87.7 120.884C87.9696 120.785 88.0494 120.651 88.0464 120.369C88.031 118.914 88.0387 117.458 88.0398 116.002C88.0402 115.402 88.2684 115.073 88.7194 115.013C89.1414 114.958 89.451 115.207 89.6442 115.782C90.5122 115.782 91.3919 115.785 92.2716 115.781C92.5732 115.78 92.9253 115.765 93.0105 116.105C93.0639 116.318 92.975 116.627 92.8402 116.814C92.5452 117.223 92.5562 117.569 92.8701 117.946C93.0415 118.152 93.229 118.424 93.0036 118.657C92.8445 118.822 92.5589 118.935 92.3251 118.944C91.4317 118.976 90.5364 118.957 89.5937 118.957C89.5937 119.505 89.5816 120.031 89.6047 120.555C89.609 120.651 89.7391 120.783 89.8414 120.826C90.3805 121.054 90.9293 121.259 91.5061 121.48Z" fill="#B9D4FF"/>
<path d="M89.5655 138.171C89.5707 139.42 89.5707 140.633 89.5707 141.867C89.0514 141.867 88.5532 141.867 87.9932 141.867C87.9932 141.701 87.9932 141.526 87.9932 141.351C87.9932 140.401 87.991 139.451 87.9941 138.5C87.9959 137.95 88.2308 137.62 88.6686 137.534C89.0153 137.466 89.3408 137.685 89.5655 138.171Z" fill="#B9D4FF"/>
<path d="M98.5564 134.336C97.9399 134.444 97.5583 134.158 97.539 133.588C97.5267 133.227 97.5264 132.864 97.542 132.502C97.5601 132.084 97.8899 131.763 98.2882 131.749C98.6821 131.736 99.0522 132.044 99.0804 132.457C99.1079 132.859 99.1471 133.276 99.0664 133.663C99.0154 133.907 98.7541 134.108 98.5564 134.336Z" fill="#173571"/>
<path d="M98.2453 135.953C98.893 136.061 99.0878 136.285 99.0944 136.895C99.0975 137.187 99.1036 137.48 99.0922 137.772C99.0737 138.244 98.7423 138.586 98.3151 138.59C97.89 138.594 97.5533 138.249 97.5383 137.78C97.5285 137.474 97.5326 137.167 97.5363 136.861C97.5429 136.317 97.6767 136.141 98.2453 135.953Z" fill="#173571"/>
<path d="M79.7518 132.071C79.8027 132.684 79.8905 133.274 79.845 133.854C79.8169 134.212 79.4567 134.403 79.0918 134.38C78.7135 134.356 78.411 134.141 78.3698 133.745C78.324 133.305 78.3213 132.854 78.3614 132.413C78.4131 131.846 79.2207 131.456 79.7518 132.071Z" fill="#173571"/>
<path d="M78.3329 137.19C78.3402 136.97 78.327 136.785 78.3591 136.608C78.4306 136.214 78.7951 135.926 79.1629 135.948C79.5633 135.973 79.8933 136.299 79.9116 136.718C79.9274 137.081 79.9265 137.446 79.9122 137.809C79.8956 138.231 79.5746 138.557 79.1738 138.589C78.7933 138.618 78.412 138.313 78.3517 137.9C78.3197 137.68 78.3376 137.453 78.3329 137.19Z" fill="#173571"/>
<path d="M86.4006 133.3C86.4022 133.01 86.383 132.756 86.4101 132.507C86.4586 132.061 86.8203 131.737 87.2199 131.748C87.6512 131.761 87.9696 132.104 87.984 132.586C87.9927 132.879 87.9887 133.173 87.9854 133.467C87.9792 134.015 87.6785 134.375 87.2211 134.39C86.7764 134.404 86.4413 134.044 86.4015 133.507C86.3973 133.451 86.4007 133.395 86.4006 133.3Z" fill="#173571"/>
<path d="M91.1062 133.991C90.8416 134.337 90.5314 134.482 90.1393 134.32C89.7735 134.168 89.6332 133.87 89.6444 133.483C89.6533 133.177 89.6381 132.87 89.6486 132.564C89.6641 132.112 89.9726 131.778 90.3866 131.749C90.7686 131.722 91.1736 132.011 91.1978 132.436C91.2267 132.942 91.1517 133.453 91.1062 133.991Z" fill="#173571"/>
</g>
<defs>
<clipPath id="clip0_2001_3">
<rect x="112.08" y="32" width="44.8" height="48.128" rx="22.4" fill="white"/>
</clipPath>
<clipPath id="clip1_2001_3">
<rect width="36.96" height="37.884" fill="white" transform="translate(70 110.472)"/>
</clipPath>
</defs>
</svg>
