<svg width="266" height="181" viewBox="0 0 266 181" fill="none" xmlns="http://www.w3.org/2000/svg">
<rect width="266" height="181" rx="12" fill="#F8FAFF"/>
<circle cx="134.48" cy="103.864" r="45" stroke="#6096FC" stroke-width="2"/>
<path d="M155.299 115.61C155.99 115.61 156.68 115.61 157.415 115.61C157.415 116.442 157.415 117.198 157.415 118.004C142.107 118.004 126.777 118.004 111.412 118.004C111.412 117.242 111.412 116.486 111.412 115.64C112.082 115.64 112.744 115.64 113.539 115.641C127.404 115.644 141.138 115.646 154.872 115.646C155.014 115.646 155.157 115.622 155.299 115.61Z" fill="#6096FC"/>
<path d="M113.555 115.434C113.555 114.656 113.555 113.877 113.555 113.029C114.246 113.029 114.905 113.029 115.696 113.041C128.124 113.054 140.419 113.055 152.715 113.055C152.857 113.055 152.999 113.03 153.141 113.017C153.829 113.017 154.517 113.017 155.3 113.017C155.3 113.805 155.3 114.554 155.226 115.37C141.286 115.435 127.42 115.435 113.555 115.434Z" fill="#6096FC"/>
<path d="M121.543 93.8864C121.813 93.8813 122.027 93.9035 122.241 93.9036C130.532 93.9041 138.822 93.9027 147.173 93.8854C149.172 93.8694 151.109 93.8694 153.086 93.8694C153.086 94.7264 153.086 95.4796 153.086 96.2716C140.647 96.2716 128.226 96.2716 115.759 96.2716C115.759 95.515 115.759 94.7604 115.759 93.9033C117.665 93.9033 119.577 93.9033 121.543 93.8864Z" fill="#6096FC"/>
<path d="M121.954 110.143C122.059 110.236 122.162 110.406 122.271 110.411C122.913 110.436 123.556 110.423 124.332 110.434C125.529 110.433 126.594 110.422 127.659 110.41C128.377 110.414 129.096 110.419 129.948 110.434C131.145 110.433 132.21 110.421 133.275 110.41C133.993 110.414 134.712 110.419 135.564 110.434C136.761 110.433 137.826 110.421 138.891 110.41C139.609 110.414 140.328 110.419 141.18 110.434C142.377 110.433 143.442 110.422 144.507 110.41C145.315 110.37 146.123 110.329 146.903 110.215C146.875 110.142 146.871 110.133 146.827 110.202C146.895 110.329 147.008 110.439 147.121 110.439C148.122 110.44 149.122 110.422 150.123 110.41C151.094 110.41 152.065 110.41 153.124 110.41C153.124 111.17 153.124 111.874 153.059 112.661C152.874 112.752 152.755 112.765 152.635 112.765C140.543 112.766 128.45 112.767 116.358 112.764C116.144 112.764 115.93 112.729 115.716 112.71C115.716 111.977 115.716 111.245 115.716 110.423C116.701 110.423 117.642 110.423 118.715 110.434C119.767 110.446 120.686 110.459 121.603 110.434C121.727 110.431 121.846 110.238 121.965 110.137C121.963 110.141 121.954 110.143 121.954 110.143Z" fill="#6096FC"/>
<path d="M130.444 86.5007C130.333 86.5666 130.222 86.6324 130.05 86.7498C129.755 86.9886 129.521 87.176 129.288 87.3634C129.226 87.3912 129.163 87.4191 129.045 87.4944C127.807 88.4349 126.625 89.3279 125.442 90.2209C125.442 90.2209 125.489 90.2579 125.42 90.252C124.666 90.772 123.981 91.2979 123.295 91.8238C123.295 91.8238 123.315 91.8358 123.265 91.8369C123.039 91.9832 122.862 92.1284 122.685 92.2735C122.685 92.2735 122.67 92.2782 122.665 92.2845C122.064 92.707 121.475 93.1345 120.867 93.5319C120.703 93.6388 120.481 93.6977 120.283 93.7036C119.617 93.7238 118.95 93.7102 118.182 93.6667C117.987 93.6045 117.894 93.5853 117.801 93.566C119.805 92.0529 121.804 90.5317 123.816 89.0286C127.02 86.6349 130.233 84.2527 133.443 81.8667C134.36 81.1854 134.48 81.1835 135.385 81.8565C140.344 85.5438 145.302 89.2324 150.259 92.9216C150.467 93.0763 150.667 93.2414 151.045 93.5386C149.684 93.6791 148.511 94.1699 147.43 93.1746C147.079 92.8521 146.664 92.601 146.23 92.3023C146.181 92.2874 146.172 92.274 146.145 92.2336C145.925 92.0671 145.731 91.9409 145.538 91.8147C145.538 91.8147 145.523 91.8358 145.512 91.7853C144.985 91.3651 144.469 90.9954 143.954 90.6256C143.954 90.6256 143.915 90.5674 143.862 90.523C143.671 90.3909 143.534 90.3033 143.397 90.2156C143.397 90.2156 143.343 90.2593 143.343 90.1986C142.588 89.5918 141.833 89.0458 141.077 88.4998C141.077 88.4998 141.058 88.525 141.048 88.4724C140.334 87.9056 139.63 87.3913 138.926 86.877C138.926 86.877 138.88 86.8219 138.828 86.7793C138.64 86.646 138.505 86.5553 138.37 86.4646C138.37 86.4646 138.338 86.5028 138.322 86.4453C138.074 86.2309 137.843 86.0741 137.612 85.9173C137.612 85.9173 137.602 85.9374 137.587 85.8895C137.442 85.7565 137.31 85.6715 137.179 85.5866C137.174 85.545 137.153 85.5164 137.06 85.4585C136.678 85.1841 136.35 84.952 136.022 84.7198C136.022 84.7198 135.985 84.6728 135.935 84.6327C135.745 84.5013 135.606 84.41 135.467 84.3187C135.467 84.3187 135.439 84.3518 135.43 84.2965C135.083 83.9901 134.746 83.7392 134.402 83.484C134.027 83.7902 133.698 84.0585 133.368 84.3268C133.368 84.3268 133.396 84.3489 133.339 84.3504C132.783 84.7356 132.286 85.1194 131.788 85.5032L131.73 85.503C131.73 85.503 131.682 85.5358 131.627 85.5791C131.454 85.7233 131.337 85.8242 131.22 85.9251C131.22 85.9251 131.237 85.9378 131.185 85.9407C130.904 86.1293 130.674 86.315 130.444 86.5007Z" fill="#6096FC"/>
<path d="M129.993 110.526C129.993 105.884 129.993 101.242 129.993 96.56C131.096 96.56 132.116 96.56 133.244 96.56C133.244 101.183 133.244 105.795 133.178 110.485C132.072 110.55 131.032 110.538 129.993 110.526Z" fill="#6096FC"/>
<path d="M135.597 110.538C135.597 105.894 135.597 101.249 135.597 96.5639C136.694 96.5639 137.734 96.5639 138.843 96.5639C138.843 101.204 138.843 105.8 138.781 110.476C137.678 110.55 136.638 110.544 135.597 110.538Z" fill="#6096FC"/>
<path d="M141.212 110.539C141.212 105.895 141.212 101.25 141.212 96.5639C142.285 96.5639 143.305 96.5639 144.395 96.5639C144.395 101.203 144.395 105.823 144.312 110.509C143.223 110.564 142.217 110.552 141.212 110.539Z" fill="#6096FC"/>
<path d="M124.474 110.575C124.462 107.148 124.449 103.721 124.438 100.294C124.435 99.0743 124.438 97.8547 124.438 96.5787C125.493 96.5787 126.507 96.5787 127.63 96.5787C127.63 101.182 127.63 105.795 127.563 110.485C126.489 110.566 125.482 110.57 124.474 110.575Z" fill="#6096FC"/>
<path d="M146.871 110.566C146.871 110.566 146.875 110.574 146.879 110.575C146.856 110.415 146.804 110.255 146.804 110.094C146.799 105.732 146.8 101.37 146.801 97.0074C146.801 96.8694 146.817 96.7314 146.828 96.56C147.885 96.56 148.904 96.56 149.992 96.56C149.992 101.201 149.992 105.821 149.913 110.508C148.845 110.572 147.858 110.569 146.871 110.566Z" fill="#6096FC"/>
<path d="M121.992 110.517C121.954 110.575 121.963 110.573 121.893 110.574C120.839 110.574 119.855 110.573 118.872 110.573C118.863 105.972 118.855 101.37 118.85 96.7694C118.85 96.7029 118.888 96.6365 118.912 96.5576C119.941 96.5576 120.963 96.5576 122.029 96.5576C122.029 101.214 122.029 105.837 121.992 110.517Z" fill="#6096FC"/>
<path d="M117.759 93.5717C117.894 93.5848 117.987 93.6041 118.115 93.6571C118.005 93.6532 117.861 93.6155 117.759 93.5717Z" fill="#6096FC"/>
<path d="M136.649 91.6854C136.534 91.7889 136.418 91.8924 136.243 92.0457C136.067 92.1836 135.95 92.2716 135.833 92.3597C135.716 92.4039 135.599 92.448 135.394 92.5303C134.677 92.5653 134.047 92.5622 133.417 92.5591C133.257 92.466 133.097 92.3729 132.871 92.2276C132.508 91.8667 132.212 91.5582 131.916 91.2496C131.873 91.1301 131.829 91.0106 131.743 90.8048C131.702 90.0917 131.704 89.4649 131.706 88.838C131.798 88.678 131.89 88.5179 132.033 88.2902C132.338 87.9529 132.591 87.6832 132.845 87.4135C133.018 87.3403 133.191 87.267 133.449 87.1525C134.117 87.0986 134.7 87.0859 135.284 87.0732C135.434 87.1462 135.585 87.2191 135.814 87.3358C136.018 87.4561 136.142 87.5325 136.267 87.6089C136.371 87.7239 136.475 87.839 136.63 88.0135C136.77 88.1889 136.86 88.3047 136.95 88.4206C137.014 88.5749 137.078 88.7292 137.16 88.9862C137.182 89.6265 137.185 90.1641 137.188 90.7018C137.116 90.8529 137.043 91.004 136.926 91.2329C136.804 91.4356 136.727 91.5605 136.649 91.6854Z" fill="#6096FC"/>
<g clip-path="url(#clip0_2001_2)">
<path d="M140.496 80.2566C131.027 80.2566 121.622 80.2566 112.213 80.2566C112.213 64.2227 112.213 48.1888 112.213 32.1418C127.127 32.1418 142.047 32.1418 156.987 32.1418C156.987 48.1713 156.987 64.214 156.987 80.2566C151.521 80.2566 146.041 80.2566 140.496 80.2566ZM139.984 68.6701C139.984 63 139.979 57.3299 139.995 51.6599C139.996 51.2453 139.875 51.0124 139.523 50.8008C137.92 49.8365 136.328 48.8541 134.746 47.8544C134.447 47.6649 134.243 47.6802 133.954 47.862C132.37 48.8582 130.778 49.8431 129.174 50.8067C128.819 51.0199 128.709 51.2589 128.71 51.6687C128.724 57.6158 128.72 63.563 128.72 69.5102C128.72 69.7142 128.72 69.9181 128.72 70.116C129.141 70.116 129.475 70.116 129.804 70.116C129.957 68.8887 129.957 68.8887 131.065 68.6273C131.065 68.4243 131.065 68.213 131.065 68.0017C131.065 66.2325 131.064 64.4633 131.066 62.694C131.066 61.6958 131.198 61.5684 132.217 61.5681C133.667 61.5676 135.116 61.5659 136.566 61.5689C137.354 61.5705 137.53 61.7495 137.533 62.5543C137.537 63.8119 137.534 65.0696 137.534 66.3272C137.534 67.1104 137.534 67.8936 137.534 68.6682C138.735 68.8018 138.735 68.8018 138.909 70.1062C139.253 70.1062 139.6 70.1062 139.984 70.1062C139.984 69.6438 139.984 69.2205 139.984 68.6701ZM140.757 63.2966C140.757 65.5693 140.757 67.8419 140.757 70.1001C143.532 70.1001 146.226 70.1001 148.911 70.1001C148.911 66.2894 148.911 62.525 148.911 58.74C146.193 57.7975 143.499 56.8632 140.757 55.9121C140.757 58.3942 140.757 60.7814 140.757 63.2966ZM125.324 56.8301C123.479 57.4696 121.633 58.109 119.809 58.7411C119.809 62.5649 119.809 66.3465 119.809 70.1143C122.537 70.1143 125.217 70.1143 127.92 70.1143C127.92 65.3825 127.92 60.6827 127.92 55.9342C127.061 56.2317 126.241 56.5158 125.324 56.8301ZM137.744 71.953C141.895 71.953 146.046 71.953 150.217 71.953C150.217 71.5795 150.217 71.2716 150.217 70.9423C139.624 70.9423 129.058 70.9423 118.479 70.9423C118.479 71.2811 118.479 71.5895 118.479 71.953C124.876 71.953 131.246 71.953 137.744 71.953ZM133.933 66.4964C133.933 65.1179 133.933 63.7393 133.933 62.3729C133.202 62.3729 132.555 62.3729 131.903 62.3729C131.903 64.5021 131.903 66.5866 131.903 68.6916C132.578 68.6916 133.226 68.6916 133.933 68.6916C133.933 67.9796 133.933 67.3019 133.933 66.4964ZM134.482 45.9218C134.311 45.9749 134.12 45.9954 133.972 46.086C131.776 47.4307 129.587 48.7845 127.396 50.1373C127.288 50.2042 127.137 50.2595 127.093 50.3588C127.034 50.4936 127.008 50.6898 127.066 50.8133C127.106 50.8987 127.327 50.9631 127.441 50.9348C127.62 50.8909 127.779 50.7651 127.942 50.6653C129.9 49.4601 131.864 48.2648 133.808 47.0373C134.21 46.7836 134.502 46.7906 134.898 47.0414C136.624 48.1348 138.371 49.1964 140.11 50.2693C140.4 50.4483 140.675 50.6645 140.987 50.7906C141.181 50.869 141.43 50.8101 141.654 50.8128C141.553 50.5948 141.47 50.365 141.342 50.1637C141.28 50.0662 141.134 50.0214 141.025 49.9542C138.871 48.6236 136.716 47.2933 134.482 45.9218ZM135.818 68.7262C136.128 68.7262 136.437 68.7262 136.728 68.7262C136.728 66.5391 136.728 64.443 136.728 62.3715C136.029 62.3715 135.377 62.3715 134.757 62.3715C134.757 64.5092 134.757 66.6045 134.757 68.7262C135.103 68.7262 135.399 68.7262 135.818 68.7262ZM143.32 55.981C145.404 56.7025 147.485 57.4324 149.577 58.131C149.761 58.1926 150.014 58.0496 150.235 58.0016C150.092 57.8304 149.983 57.571 149.801 57.5016C148.018 56.8212 146.223 56.1728 144.432 55.5148C143.224 55.0714 142.018 54.6272 140.822 54.1875C140.588 54.8753 140.817 55.2068 141.477 55.3582C142.073 55.495 142.644 55.7443 143.32 55.981ZM119.308 57.347C119.11 57.4224 118.892 57.4694 118.719 57.5832C118.602 57.6597 118.548 57.8307 118.466 57.9595C118.615 58.0449 118.757 58.1742 118.917 58.202C119.047 58.2248 119.2 58.1298 119.34 58.081C121.987 57.1629 124.624 56.218 127.285 55.3437C127.926 55.1332 128.077 54.8293 127.882 54.192C125.055 55.2365 122.23 56.2799 119.308 57.347ZM135.974 40.0644C135.706 40.0485 135.475 40.0314 135.491 40.4373C135.52 41.1599 135.499 41.8845 135.499 42.6326C136.674 42.6326 137.811 42.6326 138.945 42.6326C138.649 42.1921 138.148 41.7736 138.154 41.363C138.161 40.9409 138.663 40.5265 138.979 40.0644C137.972 40.0644 137.035 40.0644 135.974 40.0644ZM134.288 69.5073C133.08 69.5073 131.873 69.5073 130.624 69.5073C130.644 69.7641 130.658 69.9419 130.671 70.1122C133.161 70.1122 135.602 70.1122 138.082 70.1122C138.064 69.8945 138.05 69.7167 138.033 69.5073C136.796 69.5073 135.606 69.5073 134.288 69.5073ZM133.986 43.9617C133.986 44.3188 133.986 44.6759 133.986 45.0418C134.254 45.0418 134.459 45.0418 134.718 45.0418C134.718 43.2867 134.73 41.5444 134.703 39.8026C134.699 39.5855 134.514 39.2064 134.373 39.1867C133.919 39.1234 133.99 39.5255 133.988 39.8111C133.983 41.1524 133.986 42.4938 133.986 43.9617Z" fill="#F8FAFF"/>
<path d="M139.984 68.7331C139.984 69.22 139.984 69.6433 139.984 70.1057C139.6 70.1057 139.254 70.1057 138.909 70.1057C138.735 68.8013 138.735 68.8013 137.535 68.6677C137.535 67.8931 137.535 67.1099 137.535 66.3267C137.534 65.0691 137.538 63.8114 137.533 62.5538C137.531 61.749 137.354 61.57 136.566 61.5684C135.117 61.5654 133.667 61.5671 132.218 61.5676C131.198 61.5679 131.066 61.6953 131.066 62.6936C131.064 64.4628 131.065 66.232 131.065 68.0013C131.065 68.2125 131.065 68.4238 131.065 68.6268C129.957 68.8882 129.957 68.8882 129.804 70.1155C129.475 70.1155 129.141 70.1155 128.72 70.1155C128.72 69.9177 128.72 69.7137 128.72 69.5097C128.72 63.5625 128.725 57.6153 128.71 51.6682C128.709 51.2584 128.82 51.0194 129.174 50.8062C130.778 49.8426 132.37 48.8577 133.954 47.8615C134.243 47.6797 134.447 47.6644 134.746 47.8539C136.328 48.8536 137.92 49.836 139.524 50.8003C139.875 51.0119 139.996 51.2448 139.995 51.6594C139.979 57.3294 139.984 62.9995 139.984 68.7331ZM135.292 52.5953C134.604 52.6125 133.873 52.4864 133.236 52.6752C131.639 53.1487 130.76 54.9433 131.203 56.5745C131.648 58.2132 133.291 59.2445 134.93 58.9142C136.449 58.6081 137.446 57.5156 137.602 55.9854C137.75 54.5234 136.904 53.2336 135.292 52.5953Z" fill="#6096FC"/>
<path d="M140.757 63.2327C140.757 60.7815 140.757 58.3943 140.757 55.9121C143.499 56.8633 146.193 57.7975 148.911 58.74C148.911 62.525 148.911 66.2894 148.911 70.1002C146.226 70.1002 143.532 70.1002 140.757 70.1002C140.757 67.8419 140.757 65.5693 140.757 63.2327ZM142.676 62.8897C143.772 64.5903 146.155 64.5573 147.22 62.9044C147.336 62.724 147.303 62.4473 147.339 62.2153C147.126 62.1989 146.896 62.121 146.704 62.177C145.966 62.3929 145.3 62.2877 144.745 61.7623C144.172 61.2194 144.029 60.542 144.226 59.7714C144.281 59.5561 144.205 59.3071 144.188 59.0736C143.935 59.1284 143.639 59.1164 143.437 59.249C142.267 60.018 141.964 61.4146 142.676 62.8897ZM145.032 68.8465C146.628 68.8465 146.628 68.8465 146.628 67.256C146.628 67.2135 146.627 67.171 146.628 67.1286C146.66 65.239 146.673 65.2541 144.791 65.2736C143.062 65.2915 143.062 65.2774 143.062 66.9881C143.062 68.8465 143.062 68.8465 145.032 68.8465Z" fill="#6096FC"/>
<path d="M125.373 56.8147C126.241 56.5155 127.061 56.2315 127.92 55.934C127.92 60.6825 127.92 65.3823 127.92 70.1141C125.217 70.1141 122.537 70.1141 119.809 70.1141C119.809 66.3462 119.809 62.5646 119.809 58.7409C121.633 58.1088 123.479 57.4693 125.373 56.8147ZM125.41 62.3345C125.623 62.1019 125.858 61.8849 126.042 61.6317C126.192 61.426 126.283 61.1769 126.4 60.947C126.183 60.8455 125.969 60.6669 125.747 60.6566C125.037 60.6236 124.549 60.3511 124.372 59.6278C124.358 59.5685 124.322 59.5061 124.278 59.4639C124.149 59.3407 123.996 59.1194 123.88 59.1352C123.714 59.1578 123.483 59.3282 123.433 59.4846C123.177 60.2841 122.673 60.6836 121.821 60.6798C121.649 60.679 121.378 60.8286 121.329 60.97C121.282 61.1063 121.413 61.3912 121.552 61.4906C122.217 61.9673 122.453 62.5494 122.185 63.3451C122.128 63.5129 122.176 63.8585 122.276 63.905C122.448 63.9847 122.754 63.9698 122.907 63.8597C123.553 63.395 124.163 63.3559 124.79 63.8662C124.838 63.9057 124.898 63.9354 124.958 63.9567C125.415 64.1209 125.645 63.9306 125.575 63.4386C125.527 63.1027 125.465 62.7689 125.41 62.3345ZM122.072 66.5216C122.072 67.0102 122.08 67.4989 122.071 67.9873C122.06 68.5376 122.334 68.8267 122.87 68.8415C123.528 68.8597 124.187 68.8577 124.845 68.842C125.355 68.8299 125.622 68.5377 125.631 68.0337C125.642 67.3754 125.652 66.716 125.628 66.0583C125.61 65.5653 125.35 65.2732 124.822 65.2768C124.27 65.2805 123.718 65.2762 123.165 65.2773C122.232 65.279 122.08 65.4363 122.072 66.5216Z" fill="#6096FC"/>
<path d="M137.68 71.9525C131.246 71.9525 124.877 71.9525 118.479 71.9525C118.479 71.5889 118.479 71.2806 118.479 70.9418C129.059 70.9418 139.624 70.9418 150.217 70.9418C150.217 71.2711 150.217 71.579 150.217 71.9525C146.046 71.9525 141.895 71.9525 137.68 71.9525Z" fill="#6096FC"/>
<path d="M133.933 66.5597C133.933 67.3013 133.933 67.979 133.933 68.691C133.226 68.691 132.578 68.691 131.903 68.691C131.903 66.586 131.903 64.5015 131.903 62.3723C132.555 62.3723 133.202 62.3723 133.933 62.3723C133.933 63.7387 133.933 65.1172 133.933 66.5597Z" fill="#6096FC"/>
<path d="M134.522 45.9418C136.716 47.2927 138.871 48.6231 141.025 49.9536C141.134 50.0208 141.28 50.0656 141.342 50.1631C141.47 50.3644 141.553 50.5942 141.654 50.8123C141.43 50.8095 141.181 50.8684 140.987 50.7901C140.675 50.664 140.4 50.4477 140.11 50.2687C138.371 49.1958 136.624 48.1342 134.898 47.0408C134.502 46.79 134.21 46.7831 133.808 47.0367C131.864 48.2642 129.9 49.4595 127.942 50.6647C127.779 50.7646 127.62 50.8903 127.441 50.9342C127.327 50.9625 127.106 50.8982 127.066 50.8127C127.008 50.6892 127.034 50.493 127.093 50.3582C127.137 50.2589 127.288 50.2036 127.396 50.1367C129.587 48.784 131.776 47.4302 133.972 46.0855C134.12 45.9948 134.311 45.9744 134.522 45.9418Z" fill="#6096FC"/>
<path d="M135.757 68.7262C135.399 68.7262 135.103 68.7262 134.757 68.7262C134.757 66.6045 134.757 64.5091 134.757 62.3715C135.377 62.3715 136.029 62.3715 136.728 62.3715C136.728 64.443 136.728 66.5391 136.728 68.7262C136.438 68.7262 136.128 68.7262 135.757 68.7262Z" fill="#6096FC"/>
<path d="M143.273 55.962C142.644 55.7438 142.073 55.4946 141.477 55.3578C140.817 55.2063 140.588 54.8749 140.822 54.1871C142.018 54.6268 143.225 55.0709 144.432 55.5143C146.223 56.1723 148.019 56.8208 149.802 57.5011C149.983 57.5705 150.093 57.8299 150.235 58.0012C150.014 58.0491 149.762 58.1922 149.577 58.1305C147.485 57.4319 145.404 56.702 143.273 55.962Z" fill="#6096FC"/>
<path d="M119.357 57.3349C122.23 56.2797 125.055 55.2363 127.882 54.1918C128.077 54.8291 127.926 55.1331 127.285 55.3435C124.624 56.2178 121.987 57.1627 119.34 58.0808C119.2 58.1296 119.047 58.2246 118.917 58.2018C118.757 58.174 118.615 58.0447 118.466 57.9593C118.548 57.8305 118.602 57.6595 118.719 57.583C118.892 57.4692 119.11 57.4222 119.357 57.3349Z" fill="#6096FC"/>
<path d="M136.036 40.0638C137.035 40.0638 137.972 40.0638 138.979 40.0638C138.663 40.5258 138.161 40.9403 138.154 41.3624C138.148 41.773 138.65 42.1914 138.945 42.632C137.811 42.632 136.674 42.632 135.499 42.632C135.499 41.8839 135.52 41.1593 135.491 40.4367C135.475 40.0307 135.706 40.0478 136.036 40.0638Z" fill="#6096FC"/>
<path d="M134.352 69.5074C135.606 69.5074 136.796 69.5074 138.033 69.5074C138.05 69.7167 138.064 69.8945 138.082 70.1122C135.602 70.1122 133.161 70.1122 130.671 70.1122C130.658 69.9419 130.644 69.7642 130.624 69.5074C131.873 69.5074 133.08 69.5074 134.352 69.5074Z" fill="#6096FC"/>
<path d="M133.986 43.8976C133.986 42.493 133.983 41.1516 133.989 39.8103C133.99 39.5247 133.92 39.1226 134.373 39.1859C134.514 39.2056 134.699 39.5848 134.703 39.8018C134.73 41.5436 134.718 43.2859 134.718 45.041C134.459 45.041 134.254 45.041 133.986 45.041C133.986 44.6751 133.986 44.318 133.986 43.8976Z" fill="#6096FC"/>
<path d="M135.342 52.6078C136.904 53.2342 137.75 54.524 137.601 55.986C137.446 57.5162 136.449 58.6087 134.93 58.9148C133.29 59.2452 131.648 58.2138 131.203 56.5751C130.76 54.944 131.639 53.1493 133.236 52.6759C133.873 52.487 134.603 52.6132 135.342 52.6078ZM131.905 56.079C132.094 57.1788 132.738 57.8704 133.813 58.1336C134.826 58.3815 135.67 58.0362 136.299 57.2411C136.955 56.4137 137.005 55.4818 136.535 54.5486C136.026 53.5366 134.832 53.0351 133.719 53.321C132.548 53.6214 131.88 54.5909 131.905 56.079Z" fill="#6096FC"/>
<path d="M144.97 68.8459C143.062 68.8459 143.062 68.8459 143.062 66.9874C143.062 65.2767 143.062 65.2908 144.791 65.2729C146.673 65.2535 146.66 65.2383 146.628 67.1279C146.627 67.1704 146.628 67.2129 146.628 67.2553C146.628 68.8458 146.628 68.8458 144.97 68.8459ZM145.842 67.0086C145.842 66.718 145.842 66.4274 145.842 66.1124C145.148 66.1124 144.525 66.1124 143.894 66.1124C143.894 66.7728 143.894 67.3933 143.894 68.0036C144.567 68.0036 145.19 68.0036 145.842 68.0036C145.842 67.677 145.842 67.4023 145.842 67.0086Z" fill="#F8FAFF"/>
<path d="M125.41 62.3839C125.465 62.7685 125.528 63.1022 125.575 63.4381C125.645 63.9302 125.415 64.1204 124.958 63.9562C124.899 63.9349 124.838 63.9052 124.79 63.8657C124.163 63.3554 123.553 63.3945 122.907 63.8592C122.755 63.9693 122.448 63.9842 122.276 63.9046C122.176 63.858 122.128 63.5124 122.185 63.3447C122.453 62.549 122.217 61.9668 121.552 61.4901C121.413 61.3907 121.282 61.1058 121.329 60.9696C121.378 60.8281 121.649 60.6785 121.822 60.6793C122.674 60.6831 123.177 60.2837 123.433 59.4841C123.483 59.3278 123.714 59.1573 123.88 59.1348C123.996 59.119 124.149 59.3402 124.278 59.4635C124.322 59.5056 124.358 59.568 124.372 59.6273C124.549 60.3507 125.038 60.6232 125.748 60.6562C125.969 60.6665 126.183 60.845 126.4 60.9465C126.283 61.1764 126.192 61.4256 126.042 61.6313C125.858 61.8845 125.623 62.1014 125.41 62.3839ZM123.599 62.6321C123.937 62.6803 124.274 62.7285 124.512 62.7627C124.669 62.2935 124.832 61.8092 124.946 61.4679C124.575 61.1886 124.187 60.897 123.872 60.6598C123.514 60.9104 123.105 61.1971 122.775 61.4284C122.913 61.8514 123.07 62.3319 123.23 62.8193C123.283 62.7947 123.396 62.7423 123.599 62.6321Z" fill="#F8FAFF"/>
<path d="M122.072 66.4621C122.08 65.4365 122.232 65.2792 123.165 65.2775C123.718 65.2764 124.27 65.2807 124.822 65.2769C125.35 65.2734 125.61 65.5654 125.628 66.0585C125.652 66.7162 125.642 67.3756 125.631 68.0339C125.622 68.5379 125.355 68.8301 124.845 68.8422C124.187 68.8579 123.528 68.8599 122.87 68.8417C122.334 68.8269 122.06 68.5378 122.071 67.9875C122.08 67.4991 122.072 67.0104 122.072 66.4621ZM124.854 67.0092C124.854 66.7185 124.854 66.4278 124.854 66.1128C124.157 66.1128 123.534 66.1128 122.902 66.1128C122.902 66.7734 122.902 67.394 122.902 68.0045C123.576 68.0045 124.201 68.0045 124.854 68.0045C124.854 67.6783 124.854 67.4034 124.854 67.0092Z" fill="#F8FAFF"/>
<path d="M131.901 56.0224C131.88 54.5905 132.548 53.6211 133.719 53.3206C134.832 53.0347 136.026 53.5363 136.535 54.5482C137.005 55.4815 136.955 56.4134 136.299 57.2408C135.67 58.0359 134.826 58.3812 133.813 58.1332C132.738 57.8701 132.094 57.1785 131.901 56.0224ZM134.736 55.4001C134.736 55.102 134.776 54.7953 134.718 54.5091C134.684 54.3435 134.489 54.2107 134.367 54.0632C134.235 54.2005 134.015 54.3214 133.986 54.4776C133.807 55.4492 134.046 56.2892 134.928 56.8337C135.082 56.9288 135.338 56.8591 135.547 56.8655C135.527 56.6755 135.569 56.4417 135.474 56.3045C135.27 56.0114 134.994 55.7683 134.736 55.4001Z" fill="#6096FC"/>
<path d="M145.842 67.0686C145.842 67.4028 145.842 67.6775 145.842 68.0041C145.19 68.0041 144.567 68.0041 143.894 68.0041C143.894 67.3938 143.894 66.7734 143.894 66.1129C144.525 66.1129 145.148 66.1129 145.842 66.1129C145.842 66.4279 145.842 66.7185 145.842 67.0686Z" fill="#6096FC"/>
<path d="M123.554 62.6617C123.396 62.743 123.282 62.7955 123.229 62.8201C123.07 62.3326 122.913 61.8522 122.775 61.4291C123.105 61.1978 123.514 60.9111 123.872 60.6605C124.187 60.8977 124.575 61.1894 124.946 61.4686C124.832 61.8099 124.669 62.2943 124.512 62.7634C124.274 62.7293 123.936 62.6811 123.554 62.6617Z" fill="#6096FC"/>
<path d="M124.854 67.0682C124.854 67.4027 124.854 67.6776 124.854 68.0039C124.201 68.0039 123.576 68.0039 122.902 68.0039C122.902 67.3933 122.902 66.7728 122.902 66.1121C123.534 66.1121 124.157 66.1121 124.854 66.1121C124.854 66.4271 124.854 66.7178 124.854 67.0682Z" fill="#6096FC"/>
<path d="M134.742 55.4521C134.994 55.768 135.27 56.011 135.474 56.3041C135.57 56.4413 135.527 56.6751 135.547 56.8651C135.338 56.8587 135.082 56.9284 134.928 56.8334C134.046 56.2888 133.808 55.4489 133.986 54.4773C134.015 54.3211 134.235 54.2001 134.367 54.0629C134.489 54.2104 134.684 54.3431 134.718 54.5087C134.776 54.7949 134.736 55.1016 134.742 55.4521Z" fill="#6096FC"/>
<rect width="6.528" height="5.76" transform="translate(141.776 58.6246)" fill="#6096FC"/>
<rect width="6.528" height="5.76" transform="translate(121.04 58.6246)" fill="#6096FC"/>
</g>
<rect width="37" height="31" transform="translate(159.48 112.864)" fill="#F8FAFF"/>
<path d="M176.896 141.632C172.399 141.632 167.964 141.632 163.486 141.632C163.486 136.609 163.486 131.617 163.486 126.571C163.723 126.571 163.941 126.571 164.158 126.571C167.015 126.571 169.872 126.581 172.728 126.555C173.003 126.552 173.352 126.392 173.537 126.188C174.75 124.855 175.937 123.498 177.107 122.128C177.269 121.938 177.365 121.631 177.369 121.377C177.393 119.817 177.375 118.257 177.384 116.697C177.388 115.948 177.748 115.748 178.424 116.076C178.579 116.151 178.77 116.172 178.946 116.177C179.473 116.191 180 116.172 180.526 116.189C181 116.204 181.285 116.448 181.292 116.943C181.3 117.551 181.306 118.159 181.289 118.766C181.276 119.247 181.01 119.512 180.524 119.519C179.901 119.527 179.278 119.521 178.6 119.521C178.6 120.274 178.584 120.978 178.612 121.681C178.618 121.836 178.755 122.003 178.868 122.134C180.037 123.478 181.221 124.81 182.382 126.162C182.642 126.464 182.912 126.582 183.313 126.58C186.15 126.563 188.986 126.571 191.822 126.571C192.04 126.571 192.258 126.571 192.505 126.571C192.505 131.602 192.505 136.577 192.505 141.632C187.31 141.632 182.133 141.632 176.896 141.632ZM178.58 131.428C178.695 131.389 178.812 131.355 178.925 131.312C179.963 130.924 180.598 130.176 180.755 129.089C180.922 127.926 180.505 126.968 179.51 126.319C178.562 125.701 177.566 125.687 176.582 126.243C175.453 126.881 174.925 128.248 175.303 129.491C175.71 130.831 176.917 131.573 178.58 131.428ZM178.598 139.268C178.598 139.505 178.598 139.743 178.598 139.997C179.127 139.997 179.592 140.014 180.056 139.993C180.601 139.967 180.919 139.681 180.92 139.114C180.924 137.295 180.92 135.477 180.922 133.658C180.922 133.146 180.626 132.848 180.164 132.794C179.656 132.735 179.135 132.781 178.598 132.781C178.598 134.948 178.598 137.048 178.598 139.268ZM175.057 134.777C175.057 136.191 175.053 137.605 175.06 139.02C175.063 139.684 175.349 139.975 176.012 139.997C176.451 140.012 176.891 140 177.339 140C177.339 137.566 177.339 135.175 177.339 132.769C177.177 132.769 177.057 132.769 176.937 132.769C175.079 132.76 175.057 132.782 175.057 134.777ZM170.106 130.855C170.099 131.259 170.079 131.664 170.09 132.067C170.104 132.591 170.368 132.899 170.913 132.909C171.358 132.917 171.803 132.923 172.248 132.907C172.825 132.886 173.068 132.604 173.096 131.957C173.152 130.715 172.982 130.327 172.342 130.237C172.283 130.229 172.221 130.229 172.161 130.229C171.777 130.229 171.376 130.161 171.013 130.25C170.699 130.327 170.428 130.581 170.106 130.855ZM182.885 131.078C182.885 131.381 182.873 131.685 182.886 131.987C182.914 132.636 183.18 132.897 183.823 132.91C184.227 132.918 184.632 132.912 185.036 132.911C185.577 132.909 185.848 132.624 185.892 132.097C185.996 130.866 185.82 130.372 185.225 130.247C185.147 130.231 185.064 130.23 184.984 130.23C184.599 130.228 184.215 130.233 183.831 130.228C183.312 130.221 182.987 130.451 182.885 131.078ZM187.906 130.45C187.428 131.089 187.561 131.8 187.759 132.469C187.818 132.669 188.209 132.847 188.472 132.891C188.886 132.962 189.32 132.904 189.745 132.913C190.246 132.923 190.56 132.696 190.635 132.198C190.806 131.062 190.632 130.353 190.068 130.296C189.382 130.226 188.676 130.344 187.906 130.45ZM168.163 132.604C168.209 132.013 168.314 131.417 168.271 130.833C168.255 130.624 167.902 130.311 167.666 130.273C167.134 130.187 166.568 130.179 166.038 130.27C165.783 130.313 165.437 130.618 165.382 130.861C165.278 131.322 165.318 131.828 165.373 132.307C165.395 132.492 165.6 132.778 165.757 132.803C166.539 132.932 167.341 133.105 168.163 132.604ZM167.53 137.632C168.021 137.625 168.323 137.331 168.324 136.888C168.327 136.256 168.612 135.528 167.906 135.048C167.873 135.026 167.839 135.002 167.802 134.989C166.238 134.406 165.288 135.069 165.337 136.709C165.338 136.75 165.336 136.791 165.339 136.831C165.379 137.328 165.636 137.614 166.146 137.629C166.57 137.641 166.995 137.632 167.53 137.632ZM170.434 137.501C171.133 137.535 171.832 137.592 172.53 137.584C172.684 137.583 172.956 137.362 172.967 137.226C173.014 136.612 173.168 135.917 172.946 135.394C172.605 134.591 171.729 135.001 171.086 134.978C170.789 134.967 170.284 135.193 170.215 135.416C170.014 136.075 169.893 136.794 170.434 137.501ZM185.757 135.308C185.185 134.654 184.426 135.033 183.753 134.961C183.246 134.907 182.972 135.232 182.894 135.71C182.725 136.748 182.925 137.432 183.435 137.596C183.511 137.621 183.594 137.629 183.674 137.629C184.16 137.632 184.646 137.64 185.132 137.627C185.558 137.616 185.844 137.364 185.867 136.962C185.898 136.445 185.827 135.922 185.757 135.308ZM189.344 134.95C189.06 134.95 188.777 134.948 188.493 134.951C187.949 134.956 187.688 135.271 187.627 135.776C187.5 136.836 187.689 137.438 188.187 137.598C188.263 137.622 188.347 137.629 188.427 137.629C188.892 137.632 189.358 137.641 189.823 137.629C190.366 137.615 190.625 137.307 190.641 136.78C190.648 136.558 190.643 136.335 190.643 136.112C190.641 135.175 190.418 134.957 189.344 134.95Z" fill="#6096FC"/>
<path d="M175.844 122.288C174.85 123.419 173.895 124.519 172.92 125.602C172.774 125.764 172.538 125.948 172.342 125.949C168.801 125.97 165.259 125.964 161.646 125.964C161.729 125.8 161.774 125.678 161.847 125.574C162.588 124.514 163.322 123.447 164.09 122.406C164.218 122.233 164.502 122.082 164.715 122.081C168.319 122.061 171.923 122.065 175.528 122.074C175.644 122.075 175.76 122.19 175.844 122.288Z" fill="#6096FC"/>
<path d="M189.055 122.066C189.844 122.066 190.573 122.048 191.301 122.077C191.488 122.085 191.739 122.188 191.844 122.332C192.686 123.49 193.5 124.668 194.363 125.899C194.185 125.926 194.059 125.961 193.934 125.961C190.555 125.964 187.177 125.968 183.798 125.953C183.585 125.952 183.306 125.866 183.171 125.717C182.112 124.552 181.081 123.361 179.942 122.066C183.038 122.066 186.016 122.066 189.055 122.066Z" fill="#6096FC"/>
<path d="M179.412 129.168C178.884 129.683 178.287 129.495 177.732 129.393C177.586 129.366 177.439 129.033 177.397 128.82C177.34 128.527 177.386 128.215 177.38 127.912C177.373 127.499 177.495 127.173 177.968 127.159C178.434 127.144 178.6 127.441 178.598 127.867C178.598 127.968 178.598 128.068 178.598 128.212C179.11 128.294 179.631 128.399 179.412 129.168Z" fill="#6096FC"/>
<g clip-path="url(#clip1_2001_2)">
<path d="M93.604 148.441C85.7382 148.441 77.9144 148.441 70.0873 148.441C70.0873 135.818 70.0873 123.196 70.0873 110.565C82.3948 110.565 94.7056 110.565 107.03 110.565C107.03 123.185 107.03 135.813 107.03 148.441C102.575 148.441 98.1107 148.441 93.604 148.441ZM95.9994 129.083C95.6132 129.083 95.227 129.083 94.8381 129.083C94.8381 133.381 94.8381 137.618 94.8381 141.889C94.9798 141.889 95.1026 141.889 95.2254 141.889C97.2273 141.889 99.2291 141.89 101.231 141.889C102.002 141.888 102.256 141.631 102.256 140.851C102.257 137.071 102.256 133.291 102.256 129.512C102.255 129.377 102.244 129.243 102.237 129.083C100.167 129.083 98.1249 129.083 95.9994 129.083ZM75.3759 132.523C75.3759 135.309 75.3754 138.095 75.3762 140.881C75.3765 141.627 75.6392 141.888 76.3891 141.889C78.3771 141.889 80.3651 141.889 82.353 141.889C82.4746 141.889 82.5962 141.889 82.7212 141.889C82.7212 137.601 82.7212 133.357 82.7212 129.104C80.2601 129.104 77.8291 129.104 75.3759 129.104C75.3759 130.229 75.3759 131.334 75.3759 132.523ZM91.1503 140.922C91.1503 141.237 91.1503 141.553 91.1503 141.86C91.8786 141.86 92.5555 141.86 93.2314 141.86C93.2314 137.595 93.2314 133.36 93.2314 129.114C90.254 129.114 87.2966 129.114 84.3387 129.114C84.3387 133.383 84.3387 137.62 84.3387 141.867C85.036 141.867 85.7135 141.867 86.4216 141.867C86.4216 140.756 86.4078 139.666 86.4293 138.577C86.4366 138.205 86.4725 137.813 86.5993 137.468C86.9866 136.415 88.0576 135.814 89.1379 135.99C90.2791 136.176 91.1 137.074 91.1403 138.235C91.1704 139.102 91.1488 139.97 91.1503 140.922ZM88.186 124.342C84.7142 124.342 81.2425 124.342 77.7707 124.342C77.2667 124.342 76.7626 124.334 76.2589 124.345C75.7497 124.356 75.3946 124.677 75.3771 125.117C75.3601 125.548 75.661 125.862 76.1591 125.932C76.6194 125.997 76.8599 126.222 76.8267 126.677C76.8056 126.966 76.6521 127.245 76.5695 127.494C84.7251 127.494 92.9594 127.494 101.08 127.494C101.024 127.16 100.922 126.834 100.927 126.51C100.933 126.05 101.287 125.961 101.678 125.89C102.045 125.824 102.244 125.533 102.25 125.158C102.255 124.804 102.083 124.533 101.738 124.423C101.556 124.364 101.355 124.346 101.163 124.345C96.8654 124.341 92.5677 124.342 88.186 124.342ZM91.4746 121.472C90.9292 121.259 90.3804 121.054 89.8414 120.826C89.7391 120.783 89.6089 120.651 89.6047 120.555C89.5816 120.031 89.5937 119.505 89.5937 118.957C90.5364 118.957 91.4317 118.976 92.3251 118.944C92.5589 118.935 92.8445 118.822 93.0036 118.657C93.2289 118.424 93.0415 118.152 92.87 117.946C92.5562 117.569 92.5452 117.224 92.8402 116.814C92.975 116.627 93.0638 116.318 93.0104 116.105C92.9252 115.765 92.5731 115.78 92.2716 115.781C91.3919 115.785 90.5122 115.782 89.6442 115.782C89.451 115.207 89.1414 114.958 88.7194 115.014C88.2684 115.073 88.0402 115.403 88.0398 116.002C88.0387 117.458 88.031 118.914 88.0464 120.369C88.0493 120.651 87.9696 120.785 87.7 120.884C86.5088 121.322 85.326 121.783 84.1412 122.238C83.7402 122.392 83.3425 122.555 82.8379 122.755C86.8726 122.755 90.7758 122.755 94.6789 122.755C94.6822 122.737 94.6855 122.718 94.6887 122.7C93.6383 122.296 92.5879 121.892 91.4746 121.472ZM89.5603 138.136C89.3407 137.686 89.0152 137.466 88.6685 137.534C88.2307 137.62 87.9959 137.951 87.9941 138.501C87.9909 139.451 87.9931 140.402 87.9931 141.352C87.9931 141.527 87.9931 141.701 87.9931 141.868C88.5532 141.868 89.0513 141.868 89.5706 141.868C89.5706 140.633 89.5706 139.42 89.5603 138.136Z" fill="#F8FAFF"/>
<path d="M96.0412 129.083C98.1249 129.083 100.167 129.083 102.237 129.083C102.244 129.243 102.256 129.377 102.256 129.512C102.256 133.291 102.257 137.071 102.256 140.851C102.256 141.632 102.002 141.889 101.231 141.889C99.2292 141.89 97.2273 141.889 95.2255 141.889C95.1027 141.889 94.9799 141.889 94.8381 141.889C94.8381 137.618 94.8381 133.381 94.8381 129.083C95.227 129.083 95.6132 129.083 96.0412 129.083ZM98.5872 134.328C98.7542 134.108 99.0155 133.907 99.0665 133.663C99.1472 133.276 99.108 132.859 99.0805 132.457C99.0523 132.044 98.6823 131.736 98.2884 131.749C97.89 131.763 97.5602 132.084 97.5422 132.502C97.5266 132.863 97.5268 133.226 97.5391 133.588C97.5584 134.158 97.9401 134.444 98.5872 134.328ZM98.2134 135.957C97.6766 136.141 97.5427 136.317 97.5362 136.861C97.5325 137.167 97.5284 137.474 97.5382 137.78C97.5532 138.249 97.8899 138.594 98.315 138.59C98.7422 138.586 99.0735 138.244 99.092 137.772C99.1034 137.48 99.0973 137.187 99.0942 136.895C99.0876 136.285 98.8928 136.061 98.2134 135.957Z" fill="#6096FC"/>
<path d="M75.3759 132.498C75.3759 131.351 75.3759 130.246 75.3759 129.121C77.829 129.121 80.2601 129.121 82.7212 129.121C82.7212 133.374 82.7212 137.619 82.7212 141.906C82.5962 141.906 82.4746 141.906 82.353 141.906C80.365 141.906 78.3771 141.907 76.3891 141.906C75.6392 141.905 75.3764 141.644 75.3762 140.898C75.3754 138.112 75.3759 135.326 75.3759 132.498ZM79.7323 132.063C79.2205 131.474 78.4129 131.864 78.3612 132.431C78.3211 132.872 78.3238 133.323 78.3696 133.763C78.4108 134.159 78.7134 134.375 79.0916 134.398C79.4565 134.421 79.8167 134.23 79.8448 133.872C79.8903 133.292 79.8025 132.702 79.7323 132.063ZM78.3326 137.247C78.3373 137.471 78.3194 137.698 78.3515 137.917C78.4118 138.33 78.793 138.636 79.1736 138.606C79.5743 138.575 79.8953 138.248 79.9119 137.826C79.9263 137.463 79.9271 137.098 79.9113 136.735C79.893 136.316 79.563 135.99 79.1627 135.966C78.7949 135.944 78.4304 136.231 78.3588 136.625C78.3267 136.802 78.34 136.987 78.3326 137.247Z" fill="#6096FC"/>
<path d="M91.1503 140.88C91.1488 139.971 91.1704 139.102 91.1403 138.235C91.1 137.074 90.2791 136.176 89.1379 135.991C88.0576 135.815 86.9866 136.415 86.5993 137.468C86.4725 137.813 86.4366 138.206 86.4293 138.578C86.4078 139.667 86.4216 140.756 86.4216 141.868C85.7135 141.868 85.036 141.868 84.3387 141.868C84.3387 137.62 84.3387 133.383 84.3387 129.115C87.2966 129.115 90.2539 129.115 93.2314 129.115C93.2314 133.36 93.2314 137.595 93.2314 141.86C92.5555 141.86 91.8786 141.86 91.1503 141.86C91.1503 141.553 91.1503 141.238 91.1503 140.88ZM86.4006 133.339C86.4007 133.395 86.3974 133.452 86.4015 133.507C86.4413 134.044 86.7764 134.405 87.2211 134.391C87.6785 134.376 87.9792 134.015 87.9854 133.468C87.9887 133.174 87.9927 132.88 87.984 132.586C87.9696 132.105 87.6512 131.762 87.22 131.749C86.8203 131.737 86.4586 132.062 86.4101 132.507C86.383 132.756 86.4022 133.011 86.4006 133.339ZM91.1218 133.963C91.1518 133.454 91.2267 132.942 91.1979 132.437C91.1737 132.012 90.7686 131.722 90.3867 131.749C89.9727 131.779 89.6642 132.112 89.6486 132.565C89.6381 132.871 89.6533 133.178 89.6445 133.484C89.6332 133.871 89.7736 134.169 90.1394 134.32C90.5314 134.483 90.8417 134.337 91.1218 133.963Z" fill="#6096FC"/>
<path d="M88.228 124.341C92.5677 124.341 96.8654 124.34 101.163 124.345C101.355 124.345 101.556 124.364 101.738 124.422C102.083 124.533 102.256 124.803 102.25 125.157C102.244 125.533 102.045 125.823 101.678 125.889C101.287 125.96 100.933 126.05 100.927 126.509C100.922 126.833 101.024 127.159 101.08 127.493C92.9594 127.493 84.7251 127.493 76.5695 127.493C76.6521 127.244 76.8056 126.965 76.8267 126.677C76.86 126.221 76.6194 125.996 76.1592 125.932C75.661 125.861 75.3601 125.547 75.3772 125.116C75.3946 124.676 75.7497 124.355 76.2589 124.344C76.7626 124.333 77.2668 124.341 77.7707 124.341C81.2425 124.341 84.7142 124.341 88.228 124.341Z" fill="#6096FC"/>
<path d="M91.506 121.481C92.5878 121.893 93.6382 122.296 94.6887 122.7C94.6854 122.719 94.6821 122.737 94.6788 122.756C90.7757 122.756 86.8725 122.756 82.8378 122.756C83.3424 122.555 83.7401 122.392 84.1411 122.238C85.3259 121.783 86.5087 121.322 87.6999 120.885C87.9695 120.786 88.0492 120.652 88.0463 120.37C88.0309 118.914 88.0386 117.458 88.0397 116.003C88.0401 115.403 88.2683 115.073 88.7193 115.014C89.1413 114.958 89.4509 115.207 89.6441 115.783C90.5121 115.783 91.3918 115.785 92.2715 115.782C92.573 115.78 92.9251 115.766 93.0103 116.105C93.0637 116.318 92.9749 116.628 92.8401 116.815C92.5451 117.224 92.5561 117.569 92.8699 117.946C93.0414 118.152 93.2288 118.424 93.0035 118.658C92.8444 118.822 92.5588 118.936 92.325 118.944C91.4316 118.977 90.5363 118.957 89.5936 118.957C89.5936 119.506 89.5815 120.032 89.6046 120.556C89.6088 120.652 89.739 120.783 89.8413 120.826C90.3804 121.054 90.9291 121.259 91.506 121.481Z" fill="#6096FC"/>
<path d="M89.5655 138.171C89.5707 139.42 89.5707 140.633 89.5707 141.868C89.0514 141.868 88.5532 141.868 87.9932 141.868C87.9932 141.701 87.9932 141.526 87.9932 141.352C87.9932 140.401 87.991 139.451 87.9941 138.501C87.9959 137.95 88.2308 137.62 88.6686 137.534C89.0153 137.466 89.3408 137.685 89.5655 138.171Z" fill="#6096FC"/>
<path d="M98.5564 134.336C97.9399 134.444 97.5583 134.158 97.539 133.588C97.5267 133.227 97.5264 132.864 97.542 132.502C97.5601 132.084 97.8899 131.763 98.2882 131.749C98.6821 131.736 99.0522 132.044 99.0804 132.457C99.1079 132.859 99.1471 133.276 99.0664 133.663C99.0154 133.907 98.7541 134.108 98.5564 134.336Z" fill="#F8FAFF"/>
<path d="M98.2452 135.953C98.8928 136.061 99.0877 136.285 99.0942 136.895C99.0974 137.187 99.1035 137.48 99.092 137.772C99.0736 138.244 98.7422 138.586 98.315 138.59C97.8899 138.594 97.5532 138.249 97.5382 137.779C97.5284 137.473 97.5325 137.167 97.5362 136.861C97.5428 136.317 97.6766 136.141 98.2452 135.953Z" fill="#F8FAFF"/>
<path d="M79.7518 132.071C79.8027 132.684 79.8905 133.274 79.845 133.854C79.8169 134.212 79.4567 134.403 79.0918 134.38C78.7135 134.357 78.411 134.141 78.3698 133.745C78.324 133.305 78.3213 132.854 78.3614 132.413C78.4131 131.846 79.2207 131.456 79.7518 132.071Z" fill="#F8FAFF"/>
<path d="M78.3328 137.19C78.3401 136.969 78.3268 136.784 78.359 136.607C78.4305 136.214 78.795 135.926 79.1628 135.948C79.5632 135.972 79.8932 136.298 79.9114 136.717C79.9273 137.08 79.9264 137.445 79.9121 137.809C79.8955 138.23 79.5745 138.557 79.1737 138.588C78.7931 138.618 78.4119 138.312 78.3516 137.899C78.3195 137.68 78.3374 137.453 78.3328 137.19Z" fill="#F8FAFF"/>
<path d="M86.4007 133.3C86.4023 133.01 86.3832 132.756 86.4102 132.507C86.4587 132.061 86.8204 131.736 87.2201 131.748C87.6513 131.761 87.9697 132.104 87.9841 132.586C87.9928 132.879 87.9889 133.173 87.9855 133.467C87.9793 134.014 87.6786 134.375 87.2212 134.39C86.7765 134.404 86.4415 134.044 86.4016 133.507C86.3975 133.451 86.4008 133.395 86.4007 133.3Z" fill="#F8FAFF"/>
<path d="M91.1062 133.991C90.8416 134.336 90.5314 134.482 90.1393 134.32C89.7735 134.168 89.6332 133.87 89.6444 133.483C89.6533 133.177 89.6381 132.87 89.6486 132.564C89.6641 132.111 89.9726 131.778 90.3866 131.749C90.7686 131.721 91.1736 132.011 91.1978 132.436C91.2267 132.941 91.1517 133.453 91.1062 133.991Z" fill="#F8FAFF"/>
</g>
<defs>
<clipPath id="clip0_2001_2">
<rect x="112.08" y="32" width="44.8" height="48.128" rx="22.4" fill="white"/>
</clipPath>
<clipPath id="clip1_2001_2">
<rect width="36.96" height="37.884" fill="white" transform="translate(70 110.472)"/>
</clipPath>
</defs>
</svg>
