<svg width="293" height="181" viewBox="0 0 293 181" fill="none" xmlns="http://www.w3.org/2000/svg">
<rect width="293" height="181" rx="12" fill="#F8FAFF"/>
<path d="M177.251 65.2366C178.144 66.1324 178.91 67.3482 179.548 68.8839C180.186 70.4196 180.505 71.8274 180.505 73.1071V128.393C180.505 129.673 180.058 130.76 179.165 131.656C178.272 132.552 177.187 133 175.911 133H111.6C110.324 133 109.239 132.552 108.346 131.656C107.452 130.76 107.006 129.673 107.006 128.393V51.6071C107.006 50.3274 107.452 49.2396 108.346 48.3438C109.239 47.4479 110.324 47 111.6 47H154.474C155.75 47 157.154 47.3199 158.685 47.9598C160.216 48.5997 161.428 49.3676 162.321 50.2634L177.251 65.2366ZM156.005 53.5268V71.5714H173.997C173.678 70.6436 173.327 69.9877 172.944 69.6038L157.967 54.5826C157.584 54.1987 156.93 53.8467 156.005 53.5268ZM174.38 126.857V77.7143H154.474C153.198 77.7143 152.113 77.2664 151.22 76.3705C150.327 75.4747 149.88 74.3869 149.88 73.1071V53.1429H113.131V126.857H174.38ZM149.785 98.3984C150.837 99.2303 152.177 100.126 153.804 101.086C155.686 100.862 157.552 100.75 159.403 100.75C164.092 100.75 166.915 101.534 167.872 103.102C168.383 103.805 168.414 104.637 167.968 105.597C167.968 105.629 167.952 105.661 167.92 105.693L167.824 105.789V105.837C167.633 107.053 166.5 107.661 164.427 107.661C162.896 107.661 161.061 107.341 158.924 106.701C156.787 106.061 154.713 105.213 152.703 104.157C145.653 104.925 139.401 106.253 133.946 108.141C129.065 116.523 125.205 120.714 122.366 120.714C121.887 120.714 121.441 120.602 121.026 120.378L119.878 119.802C119.846 119.77 119.75 119.69 119.591 119.562C119.272 119.243 119.176 118.667 119.304 117.835C119.591 116.555 120.484 115.091 121.983 113.444C123.483 111.796 125.588 110.252 128.299 108.812C128.746 108.525 129.113 108.621 129.4 109.1C129.464 109.164 129.496 109.228 129.496 109.292C131.155 106.573 132.861 103.422 134.616 99.8382C136.785 95.487 138.444 91.2958 139.592 87.2645C138.827 84.641 138.34 82.0895 138.133 79.6099C137.925 77.1304 138.029 75.0908 138.444 73.4911C138.795 72.2113 139.465 71.5714 140.454 71.5714H141.506C142.24 71.5714 142.798 71.8114 143.181 72.2913C143.755 72.9632 143.899 74.051 143.612 75.5547C143.548 75.7467 143.484 75.8746 143.42 75.9386C143.452 76.0346 143.468 76.1626 143.468 76.3225V77.7623C143.404 81.6975 143.181 84.769 142.798 86.9766C144.553 92.2236 146.882 96.0309 149.785 98.3984ZM122.222 118.123C123.881 117.355 126.066 114.827 128.778 110.54C127.151 111.82 125.755 113.164 124.591 114.571C123.427 115.979 122.637 117.163 122.222 118.123ZM141.267 73.971C140.789 75.3147 140.757 77.4263 141.171 80.3058C141.203 80.0818 141.315 79.378 141.506 78.1942C141.506 78.0982 141.618 77.4103 141.841 76.1306C141.873 76.0026 141.937 75.8746 142.033 75.7467C142.001 75.7147 141.985 75.6827 141.985 75.6507C141.953 75.5867 141.937 75.5387 141.937 75.5067C141.905 74.8028 141.698 74.2269 141.315 73.779C141.315 73.811 141.299 73.843 141.267 73.875V73.971ZM135.334 105.693C139.64 103.965 144.17 102.67 148.923 101.806C148.859 101.774 148.652 101.622 148.301 101.35C147.95 101.078 147.695 100.862 147.536 100.702C145.111 98.5584 143.085 95.7429 141.458 92.2556C140.597 95.0071 139.273 98.1585 137.487 101.71C136.53 103.501 135.812 104.829 135.334 105.693ZM166.245 104.925C165.48 104.157 163.247 103.773 159.546 103.773C161.971 104.669 163.948 105.117 165.48 105.117C165.926 105.117 166.213 105.101 166.341 105.069C166.341 105.037 166.309 104.989 166.245 104.925Z" fill="#6096FC"/>
</svg>
