<svg width="41" height="38" viewBox="0 0 41 38" fill="none" xmlns="http://www.w3.org/2000/svg">
<path d="M0.175901 0.225515C0.0753165 0.3261 -0.00012207 8.69978 -0.00012207 18.8589V37.291H3.89754H7.7952V35.4051V33.5191H5.90923H4.02327L4.07356 18.7834L4.149 4.02259L5.88409 3.99745L7.61918 3.9723V2.08633V0.200369L3.99812 0.12493C1.98643 0.099784 0.276486 0.150076 0.175901 0.225515Z" fill="#E1E7FD"/>
<path d="M9.30566 2.06113V4.09797H13.0776C17.453 4.09797 18.8109 4.34943 20.6466 5.43072C22.4823 6.512 23.3875 8.24709 23.3875 10.5857C23.3875 12.9494 22.96 14.081 21.5016 15.5646C19.5905 17.526 18.1823 17.9535 13.2788 18.1295L9.30566 18.2553V19.9652V21.7003H12.0215H14.7121L17.3273 25.3465C18.7858 27.3582 20.0431 28.9173 20.1185 28.8167C21.0238 27.7605 22.6331 25.4471 22.6331 25.2208C22.6331 25.0448 22.0045 24.0641 21.2501 23.0331C20.4957 21.9769 19.8671 21.0465 19.8671 20.9459C19.8671 20.8202 20.2946 20.5939 20.8226 20.443C22.2811 19.9652 23.8905 18.9594 25.2986 17.6266C29.1712 13.9804 29.2717 6.81376 25.4998 3.34358C23.0606 1.08043 20.3448 0.326038 14.0331 0.150014L9.30566 -0.000862915V2.06113Z" fill="#E1E7FD"/>
<path d="M32.9423 2.08658V4.09828H34.8282H36.7142V18.6831V33.2679H34.8282H32.9171L32.9926 35.2293L33.068 37.1655L36.7896 37.241L40.4861 37.3164V18.6831V0.074885H36.7142H32.9423V2.08658Z" fill="#E1E7FD"/>
<path d="M26.5047 21.1472C26.3539 21.2477 24.8702 23.184 23.2106 25.4723C21.5509 27.7606 19.0112 31.2811 17.5276 33.3179C16.0439 35.3296 14.8369 37.0647 14.8369 37.1401C14.8369 37.2156 15.9182 37.291 17.2007 37.291H19.5895L21.903 34.0723C23.1855 32.3121 25.8509 28.691 27.8375 26.0255C29.824 23.36 31.4334 21.122 31.4334 21.0717C31.4334 20.8705 26.8065 20.946 26.5047 21.1472Z" fill="#E1E7FD"/>
<path d="M24.5176 31.382L23.1094 33.2931L24.417 35.1036C25.1462 36.1094 25.8503 36.9896 26.0012 37.0901C26.3281 37.3165 31.4328 37.3668 31.4328 37.1404C31.4328 36.9644 30.9298 36.2603 28.1386 32.4381L25.9509 29.4708L24.5176 31.382Z" fill="#E1E7FD"/>
</svg>
