<svg width="47" height="43" viewBox="0 0 47 43" fill="none" xmlns="http://www.w3.org/2000/svg">
<path d="M2.93335 2.9167C2.83276 3.01728 2.75732 11.391 2.75732 21.55V39.9822H6.65499H10.5526V38.0962V36.2103H8.66668H6.78072L6.83101 21.4746L6.90645 6.71378L8.64153 6.68863L10.3766 6.66348V4.77752V2.89155L6.75557 2.81611C4.74387 2.79097 3.03393 2.84126 2.93335 2.9167Z" fill="#ECEDEE"/>
<path d="M12.063 4.75266V6.7895H15.8349C20.2104 6.7895 21.5683 7.04096 23.4039 8.12225C25.2396 9.20353 26.1449 10.9386 26.1449 13.2772C26.1449 15.641 25.7174 16.7726 24.2589 18.2562C22.3478 20.2176 20.9396 20.6451 16.0361 20.8211L12.063 20.9468V22.6568V24.3919H14.7788H17.4694L20.0846 28.0381C21.5431 30.0498 22.8004 31.6088 22.8759 31.5082C23.7811 30.4521 25.3905 28.1386 25.3905 27.9123C25.3905 27.7363 24.7618 26.7556 24.0074 25.7246C23.253 24.6685 22.6244 23.7381 22.6244 23.6375C22.6244 23.5117 23.0519 23.2854 23.5799 23.1345C25.0384 22.6568 26.6478 21.6509 28.056 20.3182C31.9285 16.672 32.0291 9.50529 28.2571 6.03511C25.818 3.77196 23.1022 3.01757 16.7905 2.84154L12.063 2.69067V4.75266Z" fill="#ECEDEE"/>
<path d="M35.6995 4.77781V6.7895H37.5854H39.4714V21.3743V35.9591H37.5854H35.6743L35.7498 37.9205L35.8252 39.8567L39.5468 39.9322L43.2433 40.0076V21.3743V2.76611H39.4714H35.6995V4.77781Z" fill="#ECEDEE"/>
<path d="M29.2621 23.8383C29.1112 23.9389 27.6276 25.8752 25.9679 28.1635C24.3083 30.4518 21.7685 33.9723 20.2849 36.0091C18.8013 38.0208 17.5942 39.7559 17.5942 39.8313C17.5942 39.9068 18.6755 39.9822 19.958 39.9822H22.3469L24.6603 36.7635C25.9428 35.0033 28.6083 31.3822 30.5948 28.7167C32.5814 26.0512 34.1907 23.8132 34.1907 23.7629C34.1907 23.5617 29.5638 23.6372 29.2621 23.8383Z" fill="#ECEDEE"/>
<path d="M27.2749 34.073L25.8667 35.9841L27.1743 37.7946C27.9035 38.8005 28.6076 39.6806 28.7585 39.7812C29.0854 40.0075 34.1901 40.0578 34.1901 39.8315C34.1901 39.6555 33.6872 38.9514 30.8959 35.1291L28.7082 32.1619L27.2749 34.073Z" fill="#ECEDEE"/>
</svg>
