<svg width="641" height="437" viewBox="0 0 641 437" fill="none" xmlns="http://www.w3.org/2000/svg">
<rect width="641" height="436.169" fill="#F8FAFF"/>
<rect x="215" y="205" width="17" height="70" fill="#9CBFFF"/>
<rect x="254" y="205" width="17" height="70" fill="#9CBFFF"/>
<rect x="293" y="205" width="18" height="70" fill="#9CBFFF"/>
<rect x="333" y="205" width="17" height="70" fill="#9CBFFF"/>
<rect x="372" y="205" width="17" height="70" fill="#9CBFFF"/>
<rect x="192" y="186.361" width="218.975" height="4.61972" fill="#6D9EFB"/>
<rect x="192" y="280.603" width="218.975" height="8.31549" fill="#6D9EFB"/>
<rect x="204" y="193.752" width="194.952" height="4.61972" fill="#6D9EFB"/>
<path d="M411 179H192L299.416 144L411 179Z" fill="#6D9EFB"/>
<circle cx="299" cy="164" r="6" fill="#D9E7FF"/>
<rect x="416.075" y="193.752" width="53.5887" height="93.3183" fill="#6D9EFB"/>
<path d="M448.413 230.71V214.127L453.033 210.383L457.653 214.127V230.71H448.413Z" fill="white"/>
<path d="M448.413 269.515V252.933L453.033 249.188L457.653 252.933V269.515H448.413Z" fill="white"/>
<path d="M427.163 269.515V252.933L432.244 249.188L437.326 252.933V269.515H427.163Z" fill="white"/>
<path d="M427.163 230.71V214.127L432.244 210.383L437.326 214.127V230.71H427.163Z" fill="white"/>
<rect x="134.272" y="193.179" width="53.5887" height="93.3183" fill="#6D9EFB"/>
<path d="M166.61 230.137V213.554L171.23 209.81L175.85 213.554V230.137H166.61Z" fill="white"/>
<path d="M166.61 268.942V252.36L171.23 248.615L175.85 252.36V268.942H166.61Z" fill="white"/>
<path d="M145.36 268.942V252.36L150.442 248.615L155.523 252.36V268.942H145.36Z" fill="white"/>
<path d="M145.36 230.137V213.554L150.442 209.81L155.523 213.554V230.137H145.36Z" fill="white"/>
<path d="M393.9 150.327V133.744L398.982 130L404.064 133.744V150.327H393.9Z" fill="white"/>
<path d="M203.568 150.327V133.744L208.65 130L213.732 133.744V150.327H203.568Z" fill="white"/>
<path d="M439.656 290.361L450.703 288.68L479.369 305.169L471.499 318.851L442.903 302.402L439.656 290.361Z" fill="#6D9EFB" stroke="#6D9EFB" stroke-width="2.50484"/>
<path d="M487.025 308.853L489.483 310.267C493.261 312.44 494.562 317.265 492.389 321.043C490.216 324.821 485.392 326.122 481.614 323.949L479.155 322.534L487.025 308.853Z" fill="#6D9EFB" stroke="#6D9EFB" stroke-width="2.50484"/>
<circle cx="403.583" cy="269.961" r="38.4648" transform="rotate(-15.0926 403.583 269.961)" fill="#C1D2FC" fill-opacity="0.62" stroke="#6D9EFB" stroke-width="12.5242"/>
<g filter="url(#filter0_d_367_167)">
<circle cx="403.583" cy="269.961" r="38.4648" transform="rotate(-15.0926 403.583 269.961)" stroke="#6D9EFB" stroke-width="12.5242" shape-rendering="crispEdges"/>
</g>
<path d="M188.383 181.154L188.383 199.191L123.45 199.793L134.272 181.756L188.383 181.154Z" fill="#9CBFFF"/>
<path d="M415.649 181.154L415.649 199.191L480.583 199.793L469.76 181.756L415.649 181.154Z" fill="#9CBFFF"/>
<defs>
<filter id="filter0_d_367_167" x="350.844" y="211.223" width="113.477" height="113.476" filterUnits="userSpaceOnUse" color-interpolation-filters="sRGB">
<feFlood flood-opacity="0" result="BackgroundImageFix"/>
<feColorMatrix in="SourceAlpha" type="matrix" values="0 0 0 0 0 0 0 0 0 0 0 0 0 0 0 0 0 0 127 0" result="hardAlpha"/>
<feOffset dx="4" dy="-2"/>
<feGaussianBlur stdDeviation="6"/>
<feComposite in2="hardAlpha" operator="out"/>
<feColorMatrix type="matrix" values="0 0 0 0 0 0 0 0 0 0 0 0 0 0 0 0 0 0 0.11 0"/>
<feBlend mode="normal" in2="BackgroundImageFix" result="effect1_dropShadow_367_167"/>
<feBlend mode="normal" in="SourceGraphic" in2="effect1_dropShadow_367_167" result="shape"/>
</filter>
</defs>
</svg>

