<svg width="266" height="181" viewBox="0 0 266 181" fill="none" xmlns="http://www.w3.org/2000/svg">
<rect width="266" height="181" rx="12" fill="#173571"/>
<rect x="85.1" y="43.1" width="96.8" height="37.8" rx="1.9" fill="#193264"/>
<rect x="85.1" y="43.1" width="96.8" height="37.8" rx="1.9" stroke="black" stroke-width="0.2"/>
<path d="M109.5 54L101 62.5L109.5 70.5" stroke="white" stroke-width="2.8"/>
<path d="M120.736 68.256C120.011 68.256 119.301 68.1333 118.608 67.888C117.915 67.6427 117.296 67.28 116.752 66.8C116.219 66.3093 115.787 65.696 115.456 64.96C115.125 64.224 114.96 63.3707 114.96 62.4C114.96 61.4187 115.125 60.5653 115.456 59.84C115.787 59.104 116.219 58.496 116.752 58.016C117.296 57.5253 117.915 57.1573 118.608 56.912C119.301 56.6667 120.011 56.544 120.736 56.544C121.461 56.544 122.165 56.6667 122.848 56.912C123.541 57.1573 124.155 57.5253 124.688 58.016C125.232 58.496 125.669 59.104 126 59.84C126.331 60.5653 126.496 61.4187 126.496 62.4C126.496 63.3707 126.331 64.224 126 64.96C125.669 65.696 125.232 66.3093 124.688 66.8C124.155 67.28 123.541 67.6427 122.848 67.888C122.165 68.1333 121.461 68.256 120.736 68.256ZM120.736 58.48C120.245 58.48 119.765 58.56 119.296 58.72C118.837 58.88 118.427 59.1253 118.064 59.456C117.701 59.7867 117.408 60.1973 117.184 60.688C116.96 61.168 116.848 61.7387 116.848 62.4C116.848 63.0507 116.96 63.6213 117.184 64.112C117.408 64.6027 117.701 65.0133 118.064 65.344C118.427 65.6747 118.837 65.92 119.296 66.08C119.765 66.24 120.245 66.32 120.736 66.32C121.216 66.32 121.691 66.24 122.16 66.08C122.629 65.92 123.045 65.6747 123.408 65.344C123.771 65.0133 124.064 64.6027 124.288 64.112C124.512 63.6213 124.624 63.0507 124.624 62.4C124.624 61.7387 124.512 61.168 124.288 60.688C124.064 60.1973 123.771 59.7867 123.408 59.456C123.045 59.1253 122.629 58.88 122.16 58.72C121.691 58.56 121.216 58.48 120.736 58.48ZM128.669 68V56.8H132.365C132.994 56.8 133.544 56.9067 134.013 57.12C134.493 57.3227 134.888 57.5947 135.197 57.936C135.517 58.2773 135.757 58.6667 135.917 59.104C136.077 59.5307 136.157 59.9733 136.157 60.432C136.157 60.88 136.077 61.3227 135.917 61.76C135.757 62.1973 135.517 62.5867 135.197 62.928C134.888 63.2587 134.493 63.5307 134.013 63.744C133.544 63.9467 132.994 64.048 132.365 64.048H130.589V68H128.669ZM130.589 58.608V62.24H132.365C132.77 62.24 133.106 62.1493 133.373 61.968C133.65 61.7867 133.853 61.5627 133.981 61.296C134.12 61.0293 134.189 60.7413 134.189 60.432C134.189 60.112 134.12 59.8187 133.981 59.552C133.842 59.2853 133.64 59.0613 133.373 58.88C133.106 58.6987 132.77 58.608 132.365 58.608H130.589ZM145.511 56.8V58.592H140.183V61.504H144.359V63.296H140.183V66.208H145.511V68H138.263V56.8H145.511ZM148.278 56.8L154.838 63.856V56.8H156.758V68H156.118L149.542 60.928V68H147.622V56.8H148.278Z" fill="white"/>
<rect x="85.1" y="90.1" width="96.8" height="37.8" rx="1.9" fill="#294B8E"/>
<rect x="85.1" y="90.1" width="96.8" height="37.8" rx="1.9" stroke="black" stroke-width="0.2"/>
<path d="M164 117.5L172.5 109L164 101" stroke="white" stroke-width="2.8"/>
<path d="M103.736 115.24C102.776 115.24 101.933 115.075 101.208 114.744C100.493 114.403 99.8907 113.96 99.4 113.416C98.92 112.872 98.5573 112.248 98.312 111.544C98.0773 110.84 97.96 110.125 97.96 109.4C97.96 108.675 98.0773 107.96 98.312 107.256C98.5573 106.552 98.92 105.928 99.4 105.384C99.8907 104.84 100.493 104.403 101.208 104.072C101.933 103.731 102.776 103.56 103.736 103.56C104.333 103.56 104.92 103.661 105.496 103.864C106.072 104.056 106.6 104.333 107.08 104.696L105.96 106.264C105.725 106.051 105.416 105.864 105.032 105.704C104.659 105.544 104.232 105.464 103.752 105.464C102.909 105.464 102.205 105.661 101.64 106.056C101.085 106.44 100.669 106.925 100.392 107.512C100.115 108.088 99.976 108.717 99.976 109.4C99.976 110.083 100.115 110.717 100.392 111.304C100.669 111.88 101.085 112.365 101.64 112.76C102.205 113.144 102.909 113.336 103.752 113.336C104.349 113.336 104.824 113.251 105.176 113.08C105.528 112.899 105.789 112.728 105.96 112.568L107.08 114.104C106.621 114.477 106.131 114.76 105.608 114.952C105.096 115.144 104.472 115.24 103.736 115.24ZM109.357 103.8H111.277V113.208H116.605V115H109.357V103.8ZM122.908 115.256C122.183 115.256 121.473 115.133 120.78 114.888C120.087 114.643 119.468 114.28 118.924 113.8C118.391 113.309 117.959 112.696 117.628 111.96C117.297 111.224 117.132 110.371 117.132 109.4C117.132 108.419 117.297 107.565 117.628 106.84C117.959 106.104 118.391 105.496 118.924 105.016C119.468 104.525 120.087 104.157 120.78 103.912C121.473 103.667 122.183 103.544 122.908 103.544C123.633 103.544 124.337 103.667 125.02 103.912C125.713 104.157 126.327 104.525 126.86 105.016C127.404 105.496 127.841 106.104 128.172 106.84C128.503 107.565 128.668 108.419 128.668 109.4C128.668 110.371 128.503 111.224 128.172 111.96C127.841 112.696 127.404 113.309 126.86 113.8C126.327 114.28 125.713 114.643 125.02 114.888C124.337 115.133 123.633 115.256 122.908 115.256ZM122.908 105.48C122.417 105.48 121.937 105.56 121.468 105.72C121.009 105.88 120.599 106.125 120.236 106.456C119.873 106.787 119.58 107.197 119.356 107.688C119.132 108.168 119.02 108.739 119.02 109.4C119.02 110.051 119.132 110.621 119.356 111.112C119.58 111.603 119.873 112.013 120.236 112.344C120.599 112.675 121.009 112.92 121.468 113.08C121.937 113.24 122.417 113.32 122.908 113.32C123.388 113.32 123.863 113.24 124.332 113.08C124.801 112.92 125.217 112.675 125.58 112.344C125.943 112.013 126.236 111.603 126.46 111.112C126.684 110.621 126.796 110.051 126.796 109.4C126.796 108.739 126.684 108.168 126.46 107.688C126.236 107.197 125.943 106.787 125.58 106.456C125.217 106.125 124.801 105.88 124.332 105.72C123.863 105.56 123.388 105.48 122.908 105.48ZM131.509 112.344C131.85 112.813 132.288 113.139 132.821 113.32C133.354 113.491 133.898 113.576 134.453 113.576C134.666 113.576 134.896 113.555 135.141 113.512C135.386 113.469 135.616 113.395 135.829 113.288C136.042 113.181 136.218 113.043 136.357 112.872C136.496 112.691 136.565 112.467 136.565 112.2C136.565 111.837 136.41 111.539 136.101 111.304C135.792 111.059 135.408 110.829 134.949 110.616C134.49 110.403 133.989 110.189 133.445 109.976C132.912 109.763 132.416 109.512 131.957 109.224C131.498 108.925 131.114 108.568 130.805 108.152C130.496 107.736 130.341 107.224 130.341 106.616C130.341 106.072 130.448 105.597 130.661 105.192C130.874 104.776 131.157 104.435 131.509 104.168C131.861 103.891 132.266 103.683 132.725 103.544C133.194 103.405 133.68 103.336 134.181 103.336C134.917 103.336 135.626 103.485 136.309 103.784C136.992 104.072 137.594 104.472 138.117 104.984L136.853 106.392C136.48 106.019 136.058 105.731 135.589 105.528C135.13 105.325 134.64 105.224 134.117 105.224C133.882 105.224 133.648 105.251 133.413 105.304C133.189 105.347 132.986 105.427 132.805 105.544C132.634 105.651 132.496 105.8 132.389 105.992C132.282 106.173 132.229 106.403 132.229 106.68C132.229 107 132.384 107.272 132.693 107.496C133.002 107.709 133.386 107.917 133.845 108.12C134.304 108.312 134.8 108.515 135.333 108.728C135.877 108.941 136.378 109.203 136.837 109.512C137.296 109.811 137.68 110.184 137.989 110.632C138.298 111.069 138.453 111.613 138.453 112.264C138.453 112.808 138.33 113.283 138.085 113.688C137.84 114.083 137.525 114.413 137.141 114.68C136.757 114.947 136.32 115.144 135.829 115.272C135.349 115.4 134.869 115.464 134.389 115.464C133.973 115.464 133.557 115.427 133.141 115.352C132.736 115.277 132.341 115.16 131.957 115C131.584 114.84 131.232 114.637 130.901 114.392C130.57 114.147 130.277 113.853 130.021 113.512L131.509 112.344ZM147.808 103.8V105.592H142.48V108.504H146.656V110.296H142.48V113.208H147.808V115H140.56V103.8H147.808ZM149.919 103.8H153.231C154.191 103.811 155.028 103.976 155.743 104.296C156.458 104.616 157.05 105.043 157.519 105.576C157.999 106.099 158.356 106.696 158.591 107.368C158.836 108.029 158.959 108.707 158.959 109.4C158.959 110.093 158.836 110.776 158.591 111.448C158.356 112.109 157.999 112.707 157.519 113.24C157.05 113.763 156.458 114.184 155.743 114.504C155.028 114.824 154.191 114.989 153.231 115H149.919V103.8ZM151.839 105.592V113.192H153.151C153.994 113.192 154.692 113.005 155.247 112.632C155.812 112.259 156.234 111.789 156.511 111.224C156.799 110.659 156.943 110.051 156.943 109.4C156.943 108.739 156.804 108.125 156.527 107.56C156.25 106.995 155.828 106.525 155.263 106.152C154.698 105.779 153.994 105.592 153.151 105.592H151.839Z" fill="white"/>
</svg>
