<svg width="47" height="43" viewBox="0 0 47 43" fill="none" xmlns="http://www.w3.org/2000/svg">
<path d="M2.93335 2.9168C2.83276 3.01738 2.75732 11.3911 2.75732 21.5501V39.9823H6.65499H10.5526V38.0963V36.2104H8.66668H6.78072L6.83101 21.4747L6.90645 6.71388L8.64153 6.68873L10.3766 6.66358V4.77762V2.89165L6.75557 2.81621C4.74387 2.79107 3.03393 2.84136 2.93335 2.9168Z" fill="#002942" style="fill:#002942;fill:color(display-p3 0.0000 0.1608 0.2588);fill-opacity:1;"/>
<path d="M12.063 4.75278V6.78962H15.8349C20.2104 6.78962 21.5683 7.04108 23.4039 8.12237C25.2396 9.20365 26.1449 10.9387 26.1449 13.2773C26.1449 15.6411 25.7174 16.7727 24.2589 18.2563C22.3478 20.2177 20.9396 20.6452 16.0361 20.8212L12.063 20.9469V22.6569V24.392H14.7788H17.4694L20.0846 28.0382C21.5431 30.0499 22.8004 31.6089 22.8759 31.5083C23.7811 30.4522 25.3905 28.1387 25.3905 27.9124C25.3905 27.7364 24.7618 26.7557 24.0074 25.7247C23.253 24.6686 22.6244 23.7382 22.6244 23.6376C22.6244 23.5118 23.0519 23.2855 23.5799 23.1346C25.0384 22.6569 26.6478 21.651 28.056 20.3183C31.9285 16.6721 32.0291 9.50541 28.2571 6.03523C25.818 3.77208 23.1022 3.01769 16.7905 2.84166L12.063 2.69079V4.75278Z" fill="#002942" style="fill:#002942;fill:color(display-p3 0.0000 0.1608 0.2588);fill-opacity:1;"/>
<path d="M35.6995 4.77787V6.78956H37.5854H39.4714V21.3744V35.9592H37.5854H35.6743L35.7498 37.9206L35.8252 39.8568L39.5468 39.9323L43.2433 40.0077V21.3744V2.76617H39.4714H35.6995V4.77787Z" fill="#002942" style="fill:#002942;fill:color(display-p3 0.0000 0.1608 0.2588);fill-opacity:1;"/>
<path d="M29.2621 23.8384C29.1112 23.939 27.6276 25.8753 25.9679 28.1636C24.3083 30.4519 21.7685 33.9724 20.2849 36.0092C18.8013 38.0209 17.5942 39.756 17.5942 39.8314C17.5942 39.9069 18.6755 39.9823 19.958 39.9823H22.3469L24.6603 36.7636C25.9428 35.0034 28.6083 31.3823 30.5948 28.7168C32.5814 26.0513 34.1907 23.8133 34.1907 23.763C34.1907 23.5618 29.5638 23.6373 29.2621 23.8384Z" fill="#002942" style="fill:#002942;fill:color(display-p3 0.0000 0.1608 0.2588);fill-opacity:1;"/>
<path d="M27.2749 34.073L25.8667 35.9841L27.1743 37.7946C27.9035 38.8005 28.6076 39.6806 28.7585 39.7812C29.0854 40.0075 34.1901 40.0578 34.1901 39.8315C34.1901 39.6555 33.6872 38.9514 30.8959 35.1291L28.7082 32.1619L27.2749 34.073Z" fill="#002942" style="fill:#002942;fill:color(display-p3 0.0000 0.1608 0.2588);fill-opacity:1;"/>
</svg>
